<svg width="58" height="40" viewBox="0 0 58 40" fill="none" xmlns="http://www.w3.org/2000/svg">
<path d="M13.0302 19.1584L15.4997 11.9872L18.1737 12.908C18.7409 13.1034 19.2613 13.3468 19.735 13.6383C20.2177 13.9254 20.6073 14.2748 20.9036 14.6865C21.209 15.0938 21.4019 15.5643 21.4825 16.0981C21.563 16.6319 21.4847 17.2432 21.2475 17.932C21.0313 18.56 20.7293 19.064 20.3416 19.4441C19.9606 19.8266 19.5299 20.1012 19.0495 20.2681C18.5714 20.4283 18.0614 20.4944 17.5196 20.4664C16.9779 20.4385 16.4403 20.3327 15.9068 20.149L13.0302 19.1584ZM17.1146 14.832L16.0613 17.8909L16.5069 18.0443C17.0741 18.2397 17.5515 18.2681 17.9391 18.1296C18.329 17.9844 18.6205 17.6316 18.8135 17.0711C18.9739 16.6052 18.9464 16.1916 18.7309 15.8304C18.5177 15.4624 18.1579 15.1912 17.6514 15.0168L17.1146 14.832ZM23.4263 14.7168L25.8572 15.5539L23.3878 22.7251L20.9569 21.888L23.4263 14.7168ZM27.1393 15.9954L29.5398 16.822L30.3337 21.1628L30.3742 21.1767L31.525 17.5056L33.8141 18.2939L31.3447 25.4651L28.8834 24.6175L28.0771 20.5104L28.0366 20.4964L26.959 23.9548L24.6698 23.1666L27.1393 15.9954ZM36.2098 27.3443C35.6426 27.149 35.1461 26.8798 34.7204 26.5369C34.3014 26.1962 33.9688 25.8022 33.7225 25.3548C33.4853 24.903 33.3456 24.4093 33.3035 23.8736C33.2614 23.3379 33.3391 22.7831 33.5368 22.2091C33.7344 21.6352 34.0148 21.1501 34.3778 20.7539C34.7408 20.3578 35.1548 20.0547 35.6199 19.8448C36.085 19.6348 36.5841 19.5234 37.1172 19.5106C37.6527 19.4911 38.1905 19.5743 38.7307 19.7603C39.2912 19.9533 39.7898 20.227 40.2268 20.5814C40.6704 20.9381 40.9963 21.3298 41.2044 21.7565L39.214 22.9631C39.1259 22.7364 38.998 22.5375 38.8303 22.3665C38.6649 22.1887 38.4337 22.0486 38.1366 21.9463C37.9407 21.8789 37.7343 21.8531 37.5174 21.8691C37.3095 21.8806 37.109 21.9362 36.9161 22.0359C36.7254 22.1289 36.5514 22.2615 36.3938 22.4339C36.2363 22.6062 36.1145 22.8173 36.0285 23.0672C35.8564 23.5669 35.844 24.0196 35.9913 24.4253C36.1477 24.8266 36.5129 25.1261 37.0868 25.3237C37.1881 25.3586 37.2951 25.3879 37.4078 25.4116C37.5228 25.4285 37.6165 25.4306 37.6889 25.4177L37.8773 24.8708L36.7226 24.4732L37.3748 22.5791L40.6667 23.7127L39.3169 27.6325C39.1132 27.6757 38.8848 27.7028 38.6318 27.7138C38.3878 27.7204 38.1304 27.7111 37.8596 27.6858C37.5956 27.6629 37.3227 27.6218 37.041 27.5626C36.7569 27.5101 36.4799 27.4373 36.2098 27.3443ZM41.8303 29.2571C41.6548 29.1967 41.501 29.1059 41.3689 28.9849C41.2413 28.873 41.1387 28.7432 41.0611 28.5957C40.9835 28.4481 40.9365 28.2884 40.9201 28.1166C40.9105 27.9471 40.9359 27.7746 40.9964 27.599C41.0545 27.4302 41.1396 27.282 41.2515 27.1544C41.3702 27.0291 41.5055 26.9322 41.6575 26.8636C41.8118 26.7884 41.9737 26.7459 42.1432 26.7363C42.3218 26.7223 42.4988 26.7455 42.6744 26.8059C42.85 26.8664 43.0004 26.956 43.1257 27.0746C43.2601 27.1889 43.3649 27.3232 43.4402 27.4775C43.5178 27.6251 43.5614 27.7836 43.571 27.9531C43.5873 28.1249 43.5665 28.2952 43.5083 28.464C43.4479 28.6396 43.3583 28.79 43.2396 28.9153C43.1277 29.043 42.9957 29.141 42.8437 29.2095C42.6917 29.278 42.5276 29.316 42.3514 29.3232C42.1796 29.3396 42.0059 29.3176 41.8303 29.2571ZM43.1401 21.5053L45.571 22.3424L44.0084 26.8801L41.5775 26.043L43.1401 21.5053Z" fill="#FBCA0C"/>
<path d="M46.998 16.0858C51.9665 19.9196 54.7103 24.141 54.011 27.6179L53.0264 27.4199C52.9887 27.6072 52.9388 27.7915 52.8764 27.9728C52.8139 28.1541 52.7398 28.3301 52.6541 28.5009L53.5519 28.951C51.9622 32.1213 47.201 33.7584 40.9255 33.7203L40.9316 32.716C40.4813 32.7133 40.0225 32.7017 39.5556 32.6811L39.5114 33.6844C35.3301 33.5 30.571 32.616 25.6773 30.9944L25.9932 30.0411C25.7732 29.9682 25.553 29.8938 25.3326 29.8179C25.1121 29.742 24.8928 29.665 24.6747 29.587L24.3366 30.5327C19.482 28.7975 15.1877 26.5639 11.7793 24.1348L12.3622 23.3169C11.9817 23.0457 11.613 22.7724 11.2565 22.4973L10.643 23.2924C5.6745 19.4586 2.93069 15.2372 3.62999 11.7603L4.61457 11.9583C4.65224 11.771 4.70215 11.5867 4.76458 11.4054C4.82701 11.2241 4.90117 11.0481 4.98681 10.8773L4.08905 10.4271C5.67874 7.25685 10.4399 5.6198 16.7155 5.65789L16.7094 6.66217C17.1596 6.6649 17.6185 6.67651 18.0853 6.69709L18.1296 5.69377C22.3109 5.87816 27.07 6.76219 31.9637 8.3838L31.6478 9.33713C31.8677 9.41 32.0879 9.48439 32.3084 9.5603C32.5288 9.63621 32.7481 9.71317 32.9663 9.79115L33.3043 8.84545C38.1589 10.5807 42.4533 12.8143 45.8616 15.2434L45.2787 16.0613C45.6593 16.3325 46.028 16.6058 46.3844 16.8809L46.998 16.0858Z" stroke="#FBCA0C" stroke-width="2.0086" stroke-dasharray="1.34 13.39"/>
</svg>
