<svg width="367" height="269" viewBox="0 0 367 269" fill="none" xmlns="http://www.w3.org/2000/svg">
<path fill-rule="evenodd" clip-rule="evenodd" d="M350.79 5.26687L358.822 21.7212L369.033 6.52638L350.79 5.26687ZM358.481 29.1737C358.424 29.1737 358.367 29.1718 358.31 29.168C357.424 29.1066 356.639 28.5771 356.249 27.7787L344.437 3.5811C344.047 2.78242 344.112 1.83622 344.607 1.09863C345.103 0.361027 345.956 -0.0556276 346.839 0.00599802L373.667 1.85831C374.552 1.91939 375.338 2.44893 375.728 3.24761C376.117 4.04602 376.052 4.99249 375.557 5.72982L360.541 28.0751C360.078 28.7647 359.303 29.1737 358.481 29.1737Z" fill="#FBCA0C"/>
<path fill-rule="evenodd" clip-rule="evenodd" d="M16.3932 171.611L22.7838 188.61C23.4561 190.398 21.9345 192.241 20.0451 191.927L2.08205 188.945C0.19239 188.631 -0.64773 186.396 0.56967 184.922L12.1418 170.905C13.3589 169.43 15.7209 169.823 16.3932 171.611Z" fill="#FBCA0C"/>
<path fill-rule="evenodd" clip-rule="evenodd" d="M133.74 27.5742C128.701 27.5742 124.601 31.6736 124.601 36.7128C124.601 41.7519 128.701 45.8513 133.74 45.8513C138.779 45.8513 142.878 41.7519 142.878 36.7128C142.878 31.6736 138.779 27.5742 133.74 27.5742ZM133.74 50.8081C125.968 50.8081 119.645 44.4851 119.645 36.7129C119.645 28.9407 125.968 22.6177 133.74 22.6177C141.512 22.6177 147.835 28.9407 147.835 36.7129C147.835 44.4851 141.512 50.8081 133.74 50.8081Z" fill="#78CFE2"/>
</svg>
