<svg width="180" height="138" viewBox="0 0 180 138" fill="none" xmlns="http://www.w3.org/2000/svg">
<path fill-rule="evenodd" clip-rule="evenodd" d="M138.169 81.6594L138.2 81.7392C124.404 87.2726 112.296 96.2483 103.004 107.66L102.993 107.65C94.1719 118.314 80.5744 124.796 65.6898 123.974C40.799 122.6 21.7357 101.322 23.1107 76.4488C24.2279 56.2387 38.4931 39.8739 57.1551 35.1838L57.1492 35.1604C73.001 31.1383 87.7244 24.1309 100.644 14.7437L100.652 14.7557C103.409 12.7272 106.439 11.0575 109.673 9.8121C114.624 7.90328 120.051 6.98975 125.694 7.3013C147.015 8.47823 163.344 26.7038 162.166 48.0094C161.315 63.4005 151.56 76.1901 138.169 81.6594Z" fill="#78CFE2"/>
<path fill-rule="evenodd" clip-rule="evenodd" d="M118.825 107.26L118.807 107.343C104.274 104.211 89.2136 104.878 75.1227 109.142L75.1187 109.128C61.8367 113.035 46.9383 110.8 35.0634 101.788C15.2057 86.7181 11.3239 58.4028 26.3934 38.5442C38.6374 22.4088 59.6241 16.8209 77.7161 23.3758L77.7243 23.353C93.1134 28.8891 109.239 31.3179 125.203 30.7637V30.7781C128.624 30.6387 132.07 30.9499 135.447 31.7269C140.62 32.9149 145.628 35.1943 150.131 38.6112C167.14 51.5196 170.465 75.7731 157.557 92.7832C148.232 105.071 132.985 110.218 118.825 107.26Z" fill="#FBCA0C"/>
<path fill-rule="evenodd" clip-rule="evenodd" d="M100.641 1.51105L102.946 6.23177L105.875 1.8724L100.641 1.51105ZM102.848 8.36991C102.831 8.36991 102.815 8.36936 102.799 8.36826C102.545 8.35066 102.319 8.19874 102.207 7.96967L98.8186 1.02741C98.7067 0.798274 98.7254 0.52681 98.8675 0.315194C99.0099 0.103578 99.2544 -0.0159595 99.5078 0.00172082L107.205 0.533147C107.459 0.550671 107.684 0.702596 107.796 0.931736C107.908 1.1608 107.889 1.43234 107.747 1.64388L103.439 8.05471C103.306 8.25256 103.084 8.36991 102.848 8.36991Z" fill="#FBCA0C"/>
<path fill-rule="evenodd" clip-rule="evenodd" d="M161.528 23.6109L163.537 28.1992C163.681 28.5286 164.065 28.6787 164.395 28.5345L168.983 26.5256C169.312 26.3814 169.462 25.9974 169.318 25.668L167.309 21.0798C167.165 20.7504 166.781 20.6003 166.452 20.7444L161.864 22.7533C161.534 22.8976 161.384 23.2815 161.528 23.6109Z" fill="#78CFE2"/>
<path fill-rule="evenodd" clip-rule="evenodd" d="M4.70318 41.8414L6.53665 46.7184C6.72953 47.2314 6.29298 47.7602 5.75091 47.6701L0.597338 46.8146C0.0551964 46.7246 -0.185833 46.0833 0.163438 45.6603L3.48346 41.639C3.83265 41.2159 4.51031 41.3284 4.70318 41.8414Z" fill="#FBCA0C"/>
<path fill-rule="evenodd" clip-rule="evenodd" d="M137.304 124.937C137.304 127.301 139.22 129.216 141.583 129.216C143.946 129.216 145.862 127.301 145.862 124.937C145.862 122.574 143.946 120.658 141.583 120.658C139.22 120.658 137.304 122.574 137.304 124.937Z" fill="#78CFE2"/>
<path fill-rule="evenodd" clip-rule="evenodd" d="M38.3699 7.911C36.9241 7.911 35.748 9.08713 35.748 10.5329C35.748 11.9786 36.9241 13.1547 38.3699 13.1547C39.8156 13.1547 40.9917 11.9786 40.9917 10.5329C40.9917 9.08713 39.8156 7.911 38.3699 7.911ZM38.3701 14.5768C36.1402 14.5768 34.3262 12.7627 34.3262 10.5329C34.3262 8.30306 36.1402 6.489 38.3701 6.489C40.5999 6.489 42.4139 8.30306 42.4139 10.5329C42.4139 12.7627 40.5999 14.5768 38.3701 14.5768Z" fill="#78CFE2"/>
<path fill-rule="evenodd" clip-rule="evenodd" d="M7.28834 106.74C6.89884 106.74 6.58301 106.419 6.58301 106.023V99.9328C6.58301 99.5371 6.89884 99.2163 7.28834 99.2163C7.67783 99.2163 7.99367 99.5371 7.99367 99.9328V106.023C7.99367 106.419 7.67783 106.74 7.28834 106.74Z" fill="#78CFE2"/>
<path fill-rule="evenodd" clip-rule="evenodd" d="M10.3807 103.73H4.29026C3.89458 103.73 3.57373 103.415 3.57373 103.025C3.57373 102.636 3.89458 102.32 4.29026 102.32H10.3807C10.7764 102.32 11.0972 102.636 11.0972 103.025C11.0972 103.415 10.7764 103.73 10.3807 103.73Z" fill="#78CFE2"/>
<path fill-rule="evenodd" clip-rule="evenodd" d="M5.13633 105.893C4.95299 105.893 4.76981 105.823 4.62995 105.684C4.35024 105.404 4.35024 104.95 4.62995 104.671L8.93437 100.366C9.214 100.087 9.6674 100.087 9.94712 100.366C10.2268 100.646 10.2268 101.1 9.94712 101.379L5.6427 105.684C5.50292 105.823 5.31958 105.893 5.13633 105.893Z" fill="#78CFE2"/>
<path fill-rule="evenodd" clip-rule="evenodd" d="M9.44068 105.893C9.25742 105.893 9.07409 105.823 8.93431 105.684L4.62989 101.379C4.35026 101.1 4.35026 100.646 4.62989 100.366C4.90953 100.087 5.36308 100.087 5.64264 100.366L9.94706 104.671C10.2268 104.95 10.2268 105.404 9.94706 105.684C9.80728 105.823 9.62394 105.893 9.44068 105.893Z" fill="#78CFE2"/>
<path fill-rule="evenodd" clip-rule="evenodd" d="M77.0689 137.962C76.6794 137.962 76.3635 137.642 76.3635 137.246V131.155C76.3635 130.76 76.6794 130.439 77.0689 130.439C77.4584 130.439 77.7742 130.76 77.7742 131.155V137.246C77.7742 137.642 77.4584 137.962 77.0689 137.962Z" fill="#FBCA0C"/>
<path fill-rule="evenodd" clip-rule="evenodd" d="M80.1612 134.953H74.0708C73.6751 134.953 73.3542 134.637 73.3542 134.248C73.3542 133.858 73.6751 133.542 74.0708 133.542H80.1612C80.5569 133.542 80.8778 133.858 80.8778 134.248C80.8778 134.637 80.5569 134.953 80.1612 134.953Z" fill="#FBCA0C"/>
<path fill-rule="evenodd" clip-rule="evenodd" d="M175.962 85.862C175.717 85.862 175.477 85.7339 175.346 85.5049L172.854 81.169C172.658 80.8277 172.774 80.3912 173.114 80.1941L176.529 78.2156L174.758 75.1338C174.562 74.7924 174.678 74.3559 175.018 74.1588L178.318 72.247L176.381 68.8762C176.184 68.5348 176.301 68.0984 176.641 67.9013C176.981 67.7042 177.416 67.8214 177.612 68.1627L179.905 72.1518C179.999 72.3157 180.024 72.5105 179.976 72.6934C179.927 72.8762 179.808 73.0321 179.644 73.1268L176.345 75.0385L178.116 78.1202C178.312 78.4617 178.195 78.8982 177.855 79.0953L174.441 81.0737L176.577 84.7913C176.774 85.1328 176.657 85.5693 176.317 85.7664C176.205 85.8312 176.083 85.862 175.962 85.862Z" fill="#FBCA0C"/>
<path fill-rule="evenodd" clip-rule="evenodd" d="M46.7439 45.0134C46.8688 45.1592 47.0544 45.2513 47.2613 45.2506C47.635 45.2491 47.9362 44.9449 47.934 44.5712L47.9022 38.9517C47.9001 38.5781 47.5955 38.2761 47.2218 38.2774C46.8481 38.2789 46.5469 38.5831 46.549 38.9569L46.5809 44.5763C46.5818 44.7432 46.6431 44.8957 46.7439 45.0134Z" fill="white"/>
<path fill-rule="evenodd" clip-rule="evenodd" d="M49.6174 46.0348C49.6662 46.1367 49.7414 46.2275 49.8413 46.2962C50.1474 46.5071 50.5684 46.43 50.7815 46.1239L53.9087 41.6333C54.1218 41.3272 54.0463 40.9083 53.7401 40.6973C53.434 40.4864 53.013 40.5635 52.7999 40.8695L49.6727 45.3602C49.529 45.5665 49.5165 45.8242 49.6174 46.0348Z" fill="white"/>
<path fill-rule="evenodd" clip-rule="evenodd" d="M43.746 46.2419C43.9702 46.4073 44.2821 46.4256 44.5281 46.2648C44.8441 46.0583 44.9316 45.6344 44.7237 45.318L41.6721 40.676C41.4642 40.3596 41.0396 40.2706 40.7235 40.4772C40.4076 40.6837 40.32 41.1076 40.528 41.424L43.5795 46.066C43.6255 46.136 43.6822 46.1949 43.746 46.2419Z" fill="white"/>
<path fill-rule="evenodd" clip-rule="evenodd" d="M27.0277 72.9546C27.0277 69.951 27.9545 66.4465 27.9545 66.4465V66.375C27.5267 65.0878 28.2396 63.6574 29.5229 63.2282C30.1645 63.0137 30.8773 63.0852 31.4478 63.3713C30.3071 63.9434 29.7367 65.2307 30.1645 66.4465V66.518C30.1645 66.518 29.2377 70.0939 29.2377 73.0261C29.2377 78.1754 29.309 78.8906 31.3764 81.6083V84.4689C31.3764 85.5416 30.3784 86.4714 31.1625 86.6145C30.0932 86.543 29.2377 85.6132 29.2377 84.4689V81.6083C27.0989 78.7476 27.0277 78.1038 27.0277 72.9546Z" fill="#FBCA0C"/>
<path fill-rule="evenodd" clip-rule="evenodd" d="M39.2157 60.8464V60.4886C39.2157 59.1286 40.3593 57.9833 41.7887 57.9833C43.2181 57.9833 44.2188 59.1286 44.2188 60.4886V66.5726V50.4677C44.2188 49.1077 44.2903 47.9624 45.6483 47.9624C47.0063 47.9624 47.0777 49.1076 47.0777 50.4677V70.8673L46.1485 70.0799L47.0777 70.8673C49.0075 72.2272 49.2219 73.5157 49.2219 75.8777C49.2219 79.2419 46.363 81.604 46.363 81.604V84.467C46.363 85.6839 45.4339 86.6145 44.2188 86.6145H33.4977C32.3542 86.6145 33.4977 85.6839 33.4977 84.467V81.604C31.4251 78.8124 31.3536 78.1682 31.3536 73.0147C31.3536 70.0084 32.2827 66.5011 32.2827 66.5011V66.4295C31.8539 65.1411 32.5686 63.7096 33.8551 63.2801C35.1417 62.8506 34.4984 63.5664 34.9272 64.8548L34.4269 63.4232C33.998 62.1348 34.6413 60.7748 35.9278 60.3454L36.0708 60.2738C37.3573 59.8443 38.7154 60.4886 39.1441 61.7769L39.43 62.5643L39.2157 60.8464Z" fill="#FBCA0C"/>
<path fill-rule="evenodd" clip-rule="evenodd" d="M29.1908 72.9546C29.1908 69.951 30.1176 66.4465 30.1176 66.4465V66.375C29.6897 65.0878 30.4027 63.6574 31.686 63.2282C32.3276 63.0137 33.0405 63.0852 33.6108 63.3713C32.4702 63.9434 31.8998 65.2307 32.3276 66.4465V66.518C32.3276 66.518 31.4008 70.0939 31.4008 73.0261C31.4008 78.1754 31.4721 78.8906 33.5395 81.6083V84.4689C33.5395 85.5416 32.5415 86.4714 33.3256 86.6145C32.2563 86.543 31.4008 85.6132 31.4008 84.4689V81.6083C29.262 78.7476 29.1908 78.1038 29.1908 72.9546Z" fill="#78CFE2"/>
<path fill-rule="evenodd" clip-rule="evenodd" d="M46.2877 84.4671V81.6041C46.2877 81.6041 49.1466 79.242 49.1466 75.8778C49.1466 73.5158 48.9322 72.2273 47.0024 70.8674V50.4677C47.0024 49.2508 46.931 48.3203 46.0732 48.034C46.2877 47.9624 46.4306 47.9624 46.645 47.9624C48.0029 47.9624 49.1465 49.1077 49.1465 50.4677V70.8673C51.0763 72.2272 51.2908 73.5157 51.2908 75.8777C51.2908 79.2419 48.4319 81.604 48.4319 81.604V84.467C48.4319 85.6839 47.5027 86.6145 46.2877 86.6145H44.1434C45.3586 86.6145 46.2877 85.6839 46.2877 84.4671Z" fill="white"/>
<path fill-rule="evenodd" clip-rule="evenodd" d="M32.4874 63.8365C32.7734 63.8365 33.0594 63.9079 33.274 64.0509C33.703 64.2652 34.0605 64.6225 34.2036 65.0512L36.7778 72.4826C36.9209 72.9113 36.9209 73.4116 36.7063 73.8403C36.4918 74.2689 36.1343 74.6263 35.7053 74.7692C35.2762 74.9122 34.7756 74.9122 34.3466 74.6978C33.9176 74.4834 33.5601 74.1262 33.417 73.6974L30.8429 66.266C30.6998 65.8372 30.6998 65.3371 30.9143 64.9084C31.1288 64.4797 31.4863 64.1224 31.9154 63.9794C32.1298 63.8365 32.2729 63.8365 32.4874 63.8365ZM35.0617 76.2697C35.4192 76.2697 35.7769 76.1983 36.1343 76.1268C36.921 75.841 37.5645 75.2694 37.9935 74.4833C38.351 73.6973 38.4225 72.8398 38.1366 72.0538L35.5623 64.6224C35.2763 63.8364 34.7042 63.1932 33.9176 62.7646C33.1311 62.4073 32.2729 62.3358 31.4863 62.6216C30.6998 62.9074 30.0561 63.4791 29.6271 64.2651C29.1981 65.0511 29.1981 65.9086 29.4842 66.6946L32.0585 74.126C32.3444 74.912 32.9165 75.5551 33.7031 75.9839C34.0606 76.1268 34.5612 76.2697 35.0617 76.2697Z" fill="#293361"/>
<path d="M33.274 64.0509L33.211 64.1771L33.2031 64.1731L33.1958 64.1683L33.274 64.0509ZM34.2036 65.0512L34.0703 65.0974L34.0698 65.0959L34.2036 65.0512ZM36.7778 72.4826L36.9111 72.4365L36.9116 72.438L36.7778 72.4826ZM36.7063 73.8403L36.5802 73.7771L36.5802 73.7771L36.7063 73.8403ZM35.7053 74.7692L35.7499 74.903L35.7499 74.903L35.7053 74.7692ZM34.3466 74.6978L34.4097 74.5716L34.4097 74.5716L34.3466 74.6978ZM33.417 73.6974L33.5503 73.6512L33.5508 73.6528L33.417 73.6974ZM30.8429 66.266L30.7095 66.3122L30.709 66.3106L30.8429 66.266ZM30.9143 64.9084L30.7881 64.8453L30.7881 64.8452L30.9143 64.9084ZM31.9154 63.9794L31.9937 64.0968L31.978 64.1073L31.96 64.1133L31.9154 63.9794ZM36.1343 76.1268L36.1825 76.2594L36.1724 76.263L36.162 76.2651L36.1343 76.1268ZM37.9935 74.4833L38.1222 74.5418L38.1173 74.5509L37.9935 74.4833ZM38.1366 72.0538L38.004 72.102L38.0033 72.1L38.1366 72.0538ZM35.5623 64.6224L35.6948 64.5741L35.6956 64.5762L35.5623 64.6224ZM33.9176 62.7646L33.9761 62.6358L33.9851 62.6407L33.9176 62.7646ZM31.4863 62.6216L31.4381 62.489L31.4381 62.489L31.4863 62.6216ZM29.6271 64.2651L29.751 64.3327L29.751 64.3327L29.6271 64.2651ZM29.4842 66.6946L29.6167 66.6464L29.6175 66.6485L29.4842 66.6946ZM32.0585 74.126L31.9259 74.1743L31.9252 74.1722L32.0585 74.126ZM33.7031 75.9839L33.6507 76.1148L33.643 76.1117L33.6356 76.1077L33.7031 75.9839ZM32.4874 63.6954C32.7943 63.6954 33.1093 63.7717 33.3522 63.9335L33.1958 64.1683C33.0096 64.0442 32.7525 63.9776 32.4874 63.9776V63.6954ZM33.3371 63.9247C33.7911 64.1516 34.1798 64.5343 34.3374 65.0066L34.0698 65.0959C33.9412 64.7107 33.6149 64.3789 33.211 64.1771L33.3371 63.9247ZM34.3369 65.0051L36.9111 72.4365L36.6445 72.5288L34.0703 65.0974L34.3369 65.0051ZM36.9116 72.438C37.0644 72.8957 37.0667 73.4356 36.8325 73.9034L36.5802 73.7771C36.7752 73.3876 36.7775 72.927 36.644 72.5273L36.9116 72.438ZM36.8325 73.9034C36.6054 74.3571 36.2224 74.7456 35.7499 74.903L35.6607 74.6354C36.0462 74.5069 36.3782 74.1808 36.5802 73.7771L36.8325 73.9034ZM35.7499 74.903C35.2918 75.0556 34.7517 75.0579 34.2836 74.824L34.4097 74.5716C34.7995 74.7664 35.2605 74.7687 35.6607 74.6354L35.7499 74.903ZM34.2836 74.824C33.8295 74.5971 33.4408 74.2143 33.2832 73.742L33.5508 73.6528C33.6794 74.038 34.0056 74.3697 34.4097 74.5716L34.2836 74.824ZM33.2837 73.7436L30.7096 66.3122L30.9761 66.2198L33.5503 73.6512L33.2837 73.7436ZM30.709 66.3106C30.5563 65.8529 30.5541 65.3131 30.7881 64.8453L31.0404 64.9715C30.8456 65.361 30.8433 65.8216 30.9767 66.2214L30.709 66.3106ZM30.7881 64.8452C31.0152 64.3915 31.3982 64.003 31.8709 63.8456L31.96 64.1133C31.5744 64.2417 31.2424 64.5679 31.0404 64.9715L30.7881 64.8452ZM31.8372 63.8621C31.9577 63.7817 32.064 63.738 32.1737 63.716C32.2792 63.6949 32.383 63.6954 32.4874 63.6954V63.9776C32.3773 63.9776 32.3023 63.978 32.229 63.9927C32.1599 64.0065 32.0875 64.0342 31.9937 64.0968L31.8372 63.8621ZM35.0617 76.1287C35.4029 76.1287 35.7467 76.0605 36.1066 75.9885L36.162 76.2651C35.8071 76.3361 35.4356 76.4108 35.0617 76.4108V76.1287ZM36.0861 75.9942C36.8378 75.7211 37.4557 75.1743 37.8696 74.4157L38.1173 74.5509C37.6733 75.3645 37.0041 75.9609 36.1825 76.2594L36.0861 75.9942ZM37.8651 74.4249C38.2095 73.6675 38.2756 72.8484 38.004 72.102L38.2692 72.0056C38.5695 72.8311 38.4924 73.7271 38.1219 74.5417L37.8651 74.4249ZM38.0033 72.1L35.429 64.6686L35.6956 64.5762L38.2699 72.0076L38.0033 72.1ZM35.4297 64.6706C35.1564 63.9197 34.6092 63.3021 33.8501 62.8884L33.9851 62.6407C34.7992 63.0844 35.3961 63.7531 35.6948 64.5741L35.4297 64.6706ZM33.8592 62.893C33.1013 62.5488 32.2815 62.4828 31.5345 62.7542L31.4381 62.489C32.2642 62.1889 33.1608 62.2659 33.9759 62.6361L33.8592 62.893ZM31.5345 62.7542C30.783 63.0273 30.1649 63.5742 29.751 64.3327L29.5033 64.1976C29.9473 63.384 30.6166 62.7876 31.4381 62.489L31.5345 62.7542ZM29.751 64.3327C29.3443 65.0776 29.3422 65.8921 29.6167 66.6464L29.3516 66.7429C29.054 65.9252 29.0518 65.0247 29.5033 64.1975L29.751 64.3327ZM29.6175 66.6485L32.1918 74.0799L31.9252 74.1722L29.3509 66.7408L29.6175 66.6485ZM32.1911 74.0778C32.4642 74.8288 33.0115 75.4462 33.7706 75.86L33.6356 76.1077C32.8215 75.664 32.2246 74.9953 31.9259 74.1743L32.1911 74.0778ZM33.7555 75.8529C34.1034 75.992 34.5855 76.1287 35.0617 76.1287V76.4108C34.537 76.4108 34.0178 76.2616 33.6507 76.1148L33.7555 75.8529Z" fill="#293361"/>
<path fill-rule="evenodd" clip-rule="evenodd" d="M46.1706 77.4923C46.4556 77.4923 46.7407 77.349 46.812 77.0626C46.9546 76.7045 46.812 76.2749 46.4557 76.1317C44.959 75.4871 40.2551 70.2599 39.2573 67.8252C39.0434 67.1807 39.186 66.3931 39.6136 66.0351C40.1837 65.6054 41.1103 65.7486 42.2507 66.5363C43.4623 67.324 46.4557 69.6871 48.7364 71.4056C49.0215 71.6204 49.5204 71.6204 49.7342 71.2623C49.948 70.9759 49.948 70.4746 49.5916 70.2598C47.3109 68.5412 44.3175 66.1782 43.0347 65.3906C40.6827 63.8152 39.2573 64.5313 38.7584 64.9609C37.8318 65.7486 37.4755 67.1092 37.9744 68.3981C39.0434 70.9759 43.89 76.5613 45.8856 77.4206C46.028 77.4923 46.0992 77.4923 46.1706 77.4923Z" fill="#293361"/>
<path d="M46.1706 77.4923C46.4556 77.4923 46.7407 77.349 46.812 77.0626C46.9546 76.7045 46.812 76.2749 46.4557 76.1317C44.959 75.4871 40.2551 70.2599 39.2573 67.8252C39.0434 67.1807 39.186 66.3931 39.6136 66.0351C40.1837 65.6054 41.1103 65.7486 42.2507 66.5363C43.4623 67.324 46.4557 69.6871 48.7364 71.4056C49.0215 71.6204 49.5204 71.6204 49.7342 71.2623C49.948 70.9759 49.948 70.4746 49.5916 70.2598C47.3109 68.5412 44.3175 66.1782 43.0347 65.3906C40.6827 63.8152 39.2573 64.5313 38.7584 64.9609C37.8318 65.7486 37.4755 67.1092 37.9744 68.3981C39.0434 70.9759 43.89 76.5613 45.8856 77.4206C46.028 77.4923 46.0992 77.4923 46.1706 77.4923" stroke="#293361" stroke-width="0.282132"/>
<path fill-rule="evenodd" clip-rule="evenodd" d="M40.4981 72.2932C40.4263 72.3648 40.2825 72.4365 40.2107 72.4365L40.067 72.5081C39.1328 72.7947 38.1988 72.3648 37.8395 71.4336L34.9654 63.1951C34.8216 62.7653 34.8216 62.2638 35.0372 61.9056C35.2528 61.4758 35.612 61.1892 36.0431 61.046L36.1869 60.9744C37.1209 60.6878 38.055 61.1177 38.4143 62.0489L39.2047 64.3414C38.055 65.2727 37.4084 67.0636 37.9832 68.4247C38.3424 69.356 39.2766 70.7172 40.4981 72.2932ZM39.4921 74.0126C39.8514 74.0126 40.2107 73.941 40.4981 73.8693L40.6418 73.7977C41.1448 73.5827 41.6478 73.2962 42.007 72.7947C42.2226 72.5082 42.2226 72.15 42.007 71.8634C40.6418 70.2157 39.6359 68.7113 39.2766 67.8516C38.9173 66.992 39.4921 65.6308 40.3543 65.2727C40.7136 65.1294 40.8573 64.7712 40.7136 64.413L39.7076 61.5475C39.1328 59.8998 37.3365 59.0402 35.6838 59.6133L35.5401 59.6849C34.7496 59.9714 34.103 60.5445 33.7437 61.2609C33.3844 62.0489 33.3125 62.9086 33.6 63.6966L36.4741 71.9351C36.9773 73.1529 38.1988 74.0126 39.4921 74.0126Z" fill="#293361"/>
<path d="M40.2107 72.4365L40.1058 72.2261L40.1554 72.2014H40.2107V72.4365ZM40.067 72.5081L40.1718 72.7186L40.1544 72.7272L40.1359 72.7329L40.067 72.5081ZM37.8395 71.4336L37.62 71.5182L37.6175 71.511L37.8395 71.4336ZM34.9654 63.1951L34.7433 63.2726L34.7424 63.2697L34.9654 63.1951ZM35.0372 61.9056L35.2473 62.011L35.2433 62.0191L35.2386 62.0269L35.0372 61.9056ZM36.0431 61.046L36.1479 61.2565L36.133 61.2639L36.1172 61.2691L36.0431 61.046ZM36.1869 60.9744L36.0821 60.7639L36.0994 60.7553L36.1179 60.7496L36.1869 60.9744ZM38.4143 62.0489L38.6338 61.9643L38.6365 61.9723L38.4143 62.0489ZM39.2047 64.3414L39.427 64.2647L39.4807 64.4204L39.3527 64.5241L39.2047 64.3414ZM37.9832 68.4247L38.1999 68.3332L38.2026 68.3401L37.9832 68.4247ZM40.4981 73.8693L40.6029 74.0797L40.5799 74.0912L40.555 74.0974L40.4981 73.8693ZM40.6418 73.7977L40.5368 73.5869L40.5494 73.5815L40.6418 73.7977ZM42.007 72.7947L41.8158 72.6578L41.8191 72.6534L42.007 72.7947ZM42.007 71.8634L42.1883 71.7132L42.1949 71.7221L42.007 71.8634ZM39.2766 67.8516L39.0596 67.9423L39.0596 67.9423L39.2766 67.8516ZM40.3543 65.2727L40.2641 65.0555L40.2672 65.0543L40.3543 65.2727ZM40.7136 64.413L40.4952 64.5007L40.4917 64.4909L40.7136 64.413ZM39.7076 61.5475L39.4858 61.6254L39.4856 61.625L39.7076 61.5475ZM35.6838 59.6133L35.579 59.4028L35.5925 59.3961L35.6068 59.3911L35.6838 59.6133ZM35.5401 59.6849L35.6449 59.8953L35.6329 59.9013L35.6202 59.9059L35.5401 59.6849ZM33.7437 61.2609L33.5297 61.1633L33.5336 61.1555L33.7437 61.2609ZM33.6 63.6966L33.8209 63.6161L33.822 63.6192L33.6 63.6966ZM36.4741 71.9351L36.2565 72.025L36.2521 72.0125L36.4741 71.9351ZM40.6641 72.4597C40.6049 72.5187 40.5278 72.568 40.4593 72.6021C40.3983 72.6325 40.3035 72.6716 40.2107 72.6716V72.2014C40.1945 72.2014 40.1909 72.2045 40.2047 72.2001C40.2157 72.1966 40.2312 72.1904 40.2495 72.1813C40.2888 72.1617 40.3195 72.1393 40.3321 72.1267L40.6641 72.4597ZM40.3155 72.6469L40.1718 72.7186L39.9621 72.2977L40.1058 72.2261L40.3155 72.6469ZM40.1359 72.7329C39.0872 73.0546 38.0251 72.5679 37.6201 71.5182L38.0588 71.3489C38.3724 72.1617 39.1784 72.5348 39.998 72.2834L40.1359 72.7329ZM37.6175 71.511L34.7434 63.2726L35.1873 63.1177L38.0615 71.3561L37.6175 71.511ZM34.7424 63.2697C34.585 62.799 34.5733 62.2205 34.8357 61.7844L35.2386 62.0269C35.07 62.3071 35.0582 62.7315 35.1883 63.1206L34.7424 63.2697ZM34.827 61.8002C35.0728 61.3102 35.4836 60.9841 35.9689 60.8229L36.1172 61.2691C35.7404 61.3943 35.4327 61.6413 35.2473 62.011L34.827 61.8002ZM35.9383 60.8355L36.0821 60.7639L36.2917 61.1848L36.1479 61.2565L35.9383 60.8355ZM36.1179 60.7496C37.1665 60.4279 38.2287 60.9146 38.6336 61.9643L38.1949 62.1336C37.8814 61.3208 37.0753 60.9478 36.2558 61.1992L36.1179 60.7496ZM38.6365 61.9723L39.427 64.2647L38.9825 64.418L38.192 62.1256L38.6365 61.9723ZM39.3527 64.5241C38.8164 64.9585 38.3921 65.5991 38.1713 66.2931C37.9506 66.9874 37.9391 67.7159 38.1998 68.3333L37.7666 68.5162C37.4525 67.7724 37.477 66.925 37.7232 66.1506C37.9696 65.3761 38.4434 64.6555 39.0568 64.1587L39.3527 64.5241ZM38.2026 68.3401C38.5475 69.2344 39.4598 70.5698 40.6839 72.1492L40.3123 72.4372C39.0934 70.8646 38.1373 69.4776 37.7639 68.5093L38.2026 68.3401ZM39.4921 73.7775C39.823 73.7775 40.1606 73.7112 40.4412 73.6412L40.555 74.0974C40.2608 74.1708 39.8798 74.2477 39.4921 74.2477V73.7775ZM40.3932 73.6589L40.537 73.5872L40.7467 74.0081L40.6029 74.0797L40.3932 73.6589ZM40.5494 73.5815C41.0373 73.373 41.4936 73.1077 41.8159 72.6578L42.1982 72.9317C41.8019 73.4847 41.2523 73.7925 40.7342 74.0139L40.5494 73.5815ZM41.8191 72.6534C41.9717 72.4506 41.9717 72.2076 41.8191 72.0048L42.1949 71.7221C42.4734 72.0923 42.4734 72.5658 42.1949 72.9361L41.8191 72.6534ZM41.826 72.0134C40.4582 70.3625 39.4331 68.8358 39.0596 67.9423L39.4935 67.761C39.8386 68.5867 40.8255 70.0689 42.1881 71.7134L41.826 72.0134ZM39.0596 67.9423C38.8478 67.4355 38.919 66.8116 39.1406 66.2832C39.3623 65.7545 39.7579 65.2659 40.2642 65.0556L40.4445 65.4898C40.0886 65.6376 39.7656 66.0087 39.5742 66.465C39.3827 66.9216 39.3461 67.4082 39.4935 67.761L39.0596 67.9423ZM40.2672 65.0543C40.3923 65.0044 40.4684 64.9229 40.5053 64.8337C40.5424 64.7437 40.5467 64.6285 40.4954 64.5006L40.9318 64.3255C41.0242 64.5557 41.0285 64.7987 40.9399 65.0132C40.851 65.2284 40.6756 65.3976 40.4415 65.491L40.2672 65.0543ZM40.4917 64.4909L39.4858 61.6254L39.9295 61.4697L40.9354 64.3352L40.4917 64.4909ZM39.4856 61.625C38.954 60.101 37.2923 59.3043 35.7608 59.8354L35.6068 59.3911C37.3807 58.776 39.3116 59.6986 39.9296 61.4701L39.4856 61.625ZM35.7887 59.8237L35.6449 59.8953L35.4352 59.4744L35.579 59.4028L35.7887 59.8237ZM35.6202 59.9059C34.8846 60.1726 34.2854 60.7053 33.9539 61.3663L33.5336 61.1555C33.9206 60.3837 34.6147 59.7703 35.4599 59.4638L35.6202 59.9059ZM33.9577 61.3585C33.6201 62.0987 33.5575 62.8942 33.8209 63.6161L33.3791 63.7772C33.0675 62.9231 33.1487 61.9992 33.5298 61.1634L33.9577 61.3585ZM33.822 63.6192L36.6961 71.8577L36.2521 72.0125L33.378 63.7741L33.822 63.6192ZM36.6914 71.8453C37.1606 72.9809 38.3001 73.7775 39.4921 73.7775V74.2477C38.0975 74.2477 36.7939 73.3248 36.2568 72.0249L36.6914 71.8453Z" fill="#293361"/>
<path fill-rule="evenodd" clip-rule="evenodd" d="M33.3738 87.2728H46.3208C47.8946 87.2728 49.1821 85.9851 49.1821 84.4112V81.8358C49.9688 81.1204 52.0432 78.8311 52.0432 75.8264V75.7548C52.0432 73.537 51.8286 71.9632 49.8973 70.4608V57.9412C49.8973 57.512 49.6111 57.2258 49.182 57.2258C48.7527 57.2258 48.4667 57.512 48.4667 57.9412V69.3877C48.1805 69.3162 47.8945 69.3877 47.6798 69.6024C47.5367 69.7455 47.5367 69.8885 47.5367 70.0316C47.5367 70.2463 47.6082 70.4609 47.8229 70.6039L48.7527 71.3909L48.8242 71.4624C50.4695 72.6071 50.6125 73.6086 50.6125 75.8263V75.8978C50.541 78.831 48.0374 80.9772 48.0374 80.9772C47.8229 81.1203 47.7514 81.3349 47.7514 81.5495V84.4111C47.7514 85.198 47.1076 85.8419 46.3207 85.8419H33.3736C32.5868 85.8419 32.0146 85.198 32.0146 84.4111V81.621C32.0146 81.4779 32.0146 81.2633 31.8715 81.1202C29.9401 78.5448 29.8686 77.9724 29.8686 72.9646C29.8686 70.103 30.7985 66.669 30.7985 66.669C30.87 66.5259 30.7985 66.3829 30.7985 66.2398C30.441 65.2382 30.9416 64.2366 31.8715 63.9505C32.3007 63.8074 32.8015 63.8074 33.2305 64.022C33.6597 64.2366 34.0174 64.5943 34.1605 65.0236C34.3036 65.3812 34.6611 65.5959 35.0903 65.4528C35.448 65.3097 35.6626 64.952 35.5196 64.5228L35.0188 63.0919C34.7327 62.1619 35.1619 61.2319 36.0918 60.8742L36.2349 60.8027C36.6642 60.6595 37.1648 60.6595 37.5224 60.8742C37.9517 61.0888 38.2377 61.4465 38.3807 61.8757L38.6669 62.6627C38.81 63.0203 39.1677 63.235 39.5252 63.1635C39.8828 63.0919 40.0974 62.7342 40.0974 62.3765L39.8828 60.7311V60.4449C39.8828 59.4433 40.7411 58.6564 41.7426 58.6564C42.2433 58.6564 42.6725 58.871 43.0301 59.1572C43.3163 59.4433 43.5308 59.8726 43.5308 60.3019V66.4544C43.5308 66.8837 43.8169 67.1698 44.2461 67.1698C44.6754 67.1698 44.9615 66.8837 44.9615 66.4544V60.3735V60.2304V50.358C44.89 49.4279 45.6768 48.641 46.6782 48.641C47.6796 48.641 48.4665 49.4279 48.4665 50.4295V52.218C48.4665 52.6472 48.7526 52.9334 49.1818 52.9334C49.5394 52.9334 49.8971 52.6472 49.8971 52.218V50.4295C49.8973 48.641 48.4669 47.2101 46.6786 47.2101C44.8903 47.2101 43.4597 48.641 43.4597 50.4295V57.7981C42.959 57.4404 42.3152 57.2258 41.6715 57.2258C40.0977 57.2258 38.7386 58.3705 38.4525 59.8728C38.381 59.8013 38.238 59.7297 38.0949 59.6582C37.308 59.3005 36.4496 59.2289 35.6629 59.5151L35.5198 59.5866C34.2322 60.0159 33.3738 61.2321 33.3738 62.5198C32.7299 62.3052 31.9432 62.3052 31.2994 62.5198C29.6542 63.0921 28.7958 64.8091 29.2251 66.4545C29.1536 67.313 28.4382 70.3177 28.4382 72.9647C28.4382 77.9726 28.5097 78.9741 30.5842 81.7642V84.4112C30.5842 86.0566 31.8002 87.2728 33.3738 87.2728Z" fill="#293361"/>
<path d="M33.3738 87.2728H46.3208C47.8946 87.2728 49.1821 85.9851 49.1821 84.4112V81.8358C49.9688 81.1204 52.0432 78.8311 52.0432 75.8264V75.7548C52.0432 73.537 51.8286 71.9632 49.8973 70.4608V57.9412C49.8973 57.512 49.6111 57.2258 49.182 57.2258C48.7527 57.2258 48.4667 57.512 48.4667 57.9412V69.3877C48.1805 69.3162 47.8945 69.3877 47.6798 69.6024C47.5367 69.7455 47.5367 69.8885 47.5367 70.0316C47.5367 70.2463 47.6082 70.4609 47.8229 70.6039L48.7527 71.3909L48.8242 71.4624C50.4695 72.6071 50.6125 73.6086 50.6125 75.8263V75.8978C50.541 78.831 48.0374 80.9772 48.0374 80.9772C47.8229 81.1203 47.7514 81.3349 47.7514 81.5495V84.4111C47.7514 85.198 47.1076 85.8419 46.3207 85.8419H33.3736C32.5868 85.8419 32.0146 85.198 32.0146 84.4111V81.621C32.0146 81.4779 32.0146 81.2633 31.8715 81.1202C29.9401 78.5448 29.8686 77.9724 29.8686 72.9646C29.8686 70.103 30.7985 66.669 30.7985 66.669C30.87 66.5259 30.7985 66.3829 30.7985 66.2398C30.441 65.2382 30.9416 64.2366 31.8715 63.9505C32.3007 63.8074 32.8015 63.8074 33.2305 64.022C33.6597 64.2366 34.0174 64.5943 34.1605 65.0236C34.3036 65.3812 34.6611 65.5959 35.0903 65.4528C35.448 65.3097 35.6626 64.952 35.5196 64.5228L35.0188 63.0919C34.7327 62.1619 35.1619 61.2319 36.0918 60.8742L36.2349 60.8027C36.6642 60.6595 37.1648 60.6595 37.5224 60.8742C37.9517 61.0888 38.2377 61.4465 38.3807 61.8757L38.6669 62.6627C38.81 63.0203 39.1677 63.235 39.5252 63.1635C39.8828 63.0919 40.0974 62.7342 40.0974 62.3765L39.8828 60.7311V60.4449C39.8828 59.4433 40.7411 58.6564 41.7426 58.6564C42.2433 58.6564 42.6725 58.871 43.0301 59.1572C43.3163 59.4433 43.5308 59.8726 43.5308 60.3019V66.4544C43.5308 66.8837 43.8169 67.1698 44.2461 67.1698C44.6754 67.1698 44.9615 66.8837 44.9615 66.4544V60.3735V60.2304V50.358C44.89 49.4279 45.6768 48.641 46.6782 48.641C47.6796 48.641 48.4665 49.4279 48.4665 50.4295V52.218C48.4665 52.6472 48.7526 52.9334 49.1818 52.9334C49.5394 52.9334 49.8971 52.6472 49.8971 52.218V50.4295C49.8973 48.641 48.4669 47.2101 46.6786 47.2101C44.8903 47.2101 43.4597 48.641 43.4597 50.4295V57.7981C42.959 57.4404 42.3152 57.2258 41.6715 57.2258C40.0977 57.2258 38.7386 58.3705 38.4525 59.8728C38.381 59.8013 38.238 59.7297 38.0949 59.6582C37.308 59.3005 36.4496 59.2289 35.6629 59.5151L35.5198 59.5866C34.2322 60.0159 33.3738 61.2321 33.3738 62.5198C32.7299 62.3052 31.9432 62.3052 31.2994 62.5198C29.6542 63.0921 28.7958 64.8091 29.2251 66.4545C29.1536 67.313 28.4382 70.3177 28.4382 72.9647C28.4382 77.9726 28.5097 78.9741 30.5842 81.7642V84.4112C30.5842 86.0566 31.8002 87.2728 33.3738 87.2728" stroke="#293361" stroke-width="0.282132"/>
<path fill-rule="evenodd" clip-rule="evenodd" d="M48.4695 55.0628C48.4695 54.6396 48.7516 54.3574 49.1748 54.3574C49.598 54.3574 49.8801 54.6396 49.8801 55.0628C49.8801 55.486 49.598 55.7681 49.1748 55.7681C48.7516 55.7681 48.4695 55.486 48.4695 55.0628Z" fill="black"/>
<path d="M48.4695 55.0628C48.4695 54.6396 48.7516 54.3574 49.1748 54.3574C49.598 54.3574 49.8801 54.6396 49.8801 55.0628C49.8801 55.486 49.598 55.7681 49.1748 55.7681C48.7516 55.7681 48.4695 55.486 48.4695 55.0628" stroke="#293361" stroke-width="0.282132"/>
<path d="M71.6427 79.8696H64.7139V65.1096H59.6484V59.258H76.7082V65.1096H71.6427V79.8696ZM86.9902 79.8696H80.0614V65.1096H74.9959V59.258H92.0557V65.1096H86.9902V79.8696Z" fill="#1C2760"/>
<path d="M102.745 79.8696H95.7583L90.1396 59.258H97.4759L99.6885 70.8447H99.8049L102.192 59.258H109.441L112.032 70.8447H112.149L114.39 59.258H121.494L115.758 79.8696H108.772L105.86 68.2246H105.744L102.745 79.8696ZM127.453 68.2246L127.774 79.8696H121.311V59.258H130.365L134.091 70.3498H134.237L137.468 59.258H146.813V79.8696H140.088L140.292 68.2829L140.117 68.2537L136.275 79.8696H131.384L127.599 68.2246H127.453Z" fill="white"/>
</svg>
