<svg width="180" height="106" viewBox="0 0 180 106" fill="none" xmlns="http://www.w3.org/2000/svg">
<path fill-rule="evenodd" clip-rule="evenodd" d="M138.169 49.6594L138.2 49.7392C124.404 55.2726 112.296 64.2483 103.004 75.6598L102.993 75.6505C94.1719 86.3139 80.5744 92.7956 65.6898 91.974C40.799 90.6 21.7357 69.3221 23.1107 44.4488C24.2279 24.2387 38.4931 7.87394 57.1551 3.1838L57.1492 3.16035C73.001 -0.861673 87.7244 -7.86909 100.644 -17.2563L100.652 -17.2443C103.409 -19.2728 106.439 -20.9425 109.673 -22.1879C114.624 -24.0967 120.051 -25.0103 125.694 -24.6987C147.015 -23.5218 163.344 -5.29623 162.166 16.0094C161.315 31.4005 151.56 44.1901 138.169 49.6594Z" fill="#78CFE2"/>
<path fill-rule="evenodd" clip-rule="evenodd" d="M118.825 75.2595L118.807 75.3434C104.274 72.211 89.2136 72.8783 75.1227 77.1419L75.1187 77.128C61.8367 81.0345 46.9383 78.8 35.0634 69.7881C15.2057 54.7181 11.3239 26.4028 26.3934 6.54423C38.6374 -9.59121 59.6241 -15.1791 77.7161 -8.62422L77.7243 -8.64698C93.1134 -3.11092 109.239 -0.682076 125.203 -1.23632V-1.22192C128.624 -1.36131 132.07 -1.05008 135.447 -0.273084C140.62 0.914863 145.628 3.19431 150.131 6.61119C167.14 19.5196 170.465 43.7731 157.557 60.7832C148.232 73.0712 132.985 78.2184 118.825 75.2595Z" fill="#FBCA0C"/>
<path fill-rule="evenodd" clip-rule="evenodd" d="M4.70318 9.8414L6.53665 14.7184C6.72953 15.2314 6.29298 15.7602 5.75091 15.6701L0.597338 14.8146C0.0551964 14.7246 -0.185833 14.0833 0.163438 13.6603L3.48346 9.63896C3.83265 9.21589 4.51031 9.32837 4.70318 9.8414Z" fill="#FBCA0C"/>
<path fill-rule="evenodd" clip-rule="evenodd" d="M137.304 92.9374C137.304 95.3006 139.22 97.2163 141.583 97.2163C143.946 97.2163 145.862 95.3006 145.862 92.9374C145.862 90.5742 143.946 88.6583 141.583 88.6583C139.22 88.6583 137.304 90.5742 137.304 92.9374Z" fill="#78CFE2"/>
<path fill-rule="evenodd" clip-rule="evenodd" d="M7.28834 74.7398C6.89884 74.7398 6.58301 74.419 6.58301 74.0232V67.9328C6.58301 67.5371 6.89884 67.2163 7.28834 67.2163C7.67783 67.2163 7.99367 67.5371 7.99367 67.9328V74.0232C7.99367 74.419 7.67783 74.7398 7.28834 74.7398Z" fill="#78CFE2"/>
<path fill-rule="evenodd" clip-rule="evenodd" d="M10.3807 71.7304H4.29026C3.89458 71.7304 3.57373 71.4146 3.57373 71.0251C3.57373 70.6355 3.89458 70.3198 4.29026 70.3198H10.3807C10.7764 70.3198 11.0972 70.6355 11.0972 71.0251C11.0972 71.4146 10.7764 71.7304 10.3807 71.7304Z" fill="#78CFE2"/>
<path fill-rule="evenodd" clip-rule="evenodd" d="M5.13633 73.8934C4.95299 73.8934 4.76981 73.8234 4.62995 73.6836C4.35024 73.4039 4.35024 72.9505 4.62995 72.6708L8.93437 68.3665C9.214 68.0867 9.6674 68.0868 9.94712 68.3665C10.2268 68.6462 10.2268 69.0996 9.94712 69.3792L5.6427 73.6836C5.50292 73.8234 5.31958 73.8934 5.13633 73.8934Z" fill="#78CFE2"/>
<path fill-rule="evenodd" clip-rule="evenodd" d="M9.44068 73.8934C9.25742 73.8934 9.07409 73.8234 8.93431 73.6836L4.62989 69.3792C4.35026 69.0995 4.35026 68.6461 4.62989 68.3664C4.90953 68.0868 5.36308 68.0868 5.64264 68.3664L9.94706 72.6708C10.2268 72.9505 10.2268 73.4039 9.94706 73.6836C9.80728 73.8234 9.62394 73.8934 9.44068 73.8934Z" fill="#78CFE2"/>
<path fill-rule="evenodd" clip-rule="evenodd" d="M77.0689 105.962C76.6794 105.962 76.3635 105.642 76.3635 105.246V99.1554C76.3635 98.7597 76.6794 98.4389 77.0689 98.4389C77.4584 98.4389 77.7742 98.7597 77.7742 99.1554V105.246C77.7742 105.642 77.4584 105.962 77.0689 105.962Z" fill="#FBCA0C"/>
<path fill-rule="evenodd" clip-rule="evenodd" d="M80.1612 102.953H74.0708C73.6751 102.953 73.3542 102.637 73.3542 102.248C73.3542 101.858 73.6751 101.542 74.0708 101.542H80.1612C80.5569 101.542 80.8778 101.858 80.8778 102.248C80.8778 102.637 80.5569 102.953 80.1612 102.953Z" fill="#FBCA0C"/>
<path fill-rule="evenodd" clip-rule="evenodd" d="M175.962 53.862C175.717 53.862 175.477 53.7339 175.346 53.5049L172.854 49.169C172.658 48.8277 172.774 48.3912 173.114 48.1941L176.529 46.2156L174.758 43.1338C174.562 42.7924 174.678 42.3559 175.018 42.1588L178.318 40.247L176.381 36.8762C176.184 36.5348 176.301 36.0984 176.641 35.9013C176.981 35.7042 177.416 35.8214 177.612 36.1627L179.905 40.1518C179.999 40.3157 180.024 40.5105 179.976 40.6934C179.927 40.8762 179.808 41.0321 179.644 41.1268L176.345 43.0385L178.116 46.1202C178.312 46.4617 178.195 46.8982 177.855 47.0953L174.441 49.0737L176.577 52.7913C176.774 53.1328 176.657 53.5693 176.317 53.7664C176.205 53.8312 176.083 53.862 175.962 53.862Z" fill="#FBCA0C"/>
<path fill-rule="evenodd" clip-rule="evenodd" d="M49.7439 13.0134C49.8688 13.1592 50.0544 13.2513 50.2613 13.2506C50.635 13.2491 50.9362 12.9449 50.934 12.5712L50.9022 6.95174C50.9001 6.5781 50.5955 6.27613 50.2218 6.27745C49.8481 6.27891 49.5469 6.58312 49.549 6.9569L49.5809 12.5763C49.5818 12.7432 49.6431 12.8957 49.7439 13.0134Z" fill="white"/>
<path fill-rule="evenodd" clip-rule="evenodd" d="M52.6174 14.0348C52.6662 14.1367 52.7414 14.2275 52.8413 14.2962C53.1474 14.5071 53.5684 14.43 53.7815 14.1239L56.9087 9.63329C57.1218 9.3272 57.0463 8.90826 56.7401 8.69728C56.434 8.48641 56.013 8.56354 55.7999 8.86954L52.6727 13.3602C52.529 13.5665 52.5165 13.8242 52.6174 14.0348Z" fill="white"/>
<path fill-rule="evenodd" clip-rule="evenodd" d="M46.746 14.2419C46.9702 14.4073 47.2821 14.4256 47.5281 14.2648C47.8441 14.0583 47.9316 13.6344 47.7237 13.318L44.6721 8.67596C44.4642 8.35959 44.0396 8.27057 43.7235 8.47716C43.4076 8.68373 43.32 9.10755 43.528 9.42396L46.5795 14.066C46.6255 14.136 46.6822 14.1949 46.746 14.2419Z" fill="white"/>
<path fill-rule="evenodd" clip-rule="evenodd" d="M30.0277 40.9546C30.0277 37.951 30.9545 34.4465 30.9545 34.4465V34.375C30.5267 33.0878 31.2396 31.6574 32.5229 31.2282C33.1645 31.0137 33.8773 31.0852 34.4478 31.3713C33.3071 31.9434 32.7367 33.2307 33.1645 34.4465V34.518C33.1645 34.518 32.2377 38.094 32.2377 41.0261C32.2377 46.1754 32.309 46.8906 34.3764 49.6083V52.4689C34.3764 53.5416 33.3784 54.4714 34.1625 54.6145C33.0932 54.543 32.2377 53.6132 32.2377 52.4689V49.6083C30.0989 46.7476 30.0277 46.1038 30.0277 40.9546Z" fill="#FBCA0C"/>
<path fill-rule="evenodd" clip-rule="evenodd" d="M42.2157 28.8464V28.4886C42.2157 27.1286 43.3593 25.9833 44.7887 25.9833C46.2181 25.9833 47.2188 27.1286 47.2188 28.4886V34.5726V18.4677C47.2188 17.1077 47.2903 15.9624 48.6483 15.9624C50.0063 15.9624 50.0777 17.1076 50.0777 18.4677V38.8673L49.1485 38.0799L50.0777 38.8673C52.0075 40.2272 52.2219 41.5157 52.2219 43.8777C52.2219 47.2419 49.363 49.604 49.363 49.604V52.467C49.363 53.6839 48.4339 54.6145 47.2188 54.6145H36.4977C35.3542 54.6145 36.4977 53.6839 36.4977 52.467V49.604C34.4251 46.8124 34.3536 46.1682 34.3536 41.0147C34.3536 38.0084 35.2827 34.5011 35.2827 34.5011V34.4295C34.8539 33.1411 35.5686 31.7096 36.8551 31.2801C38.1417 30.8506 37.4984 31.5664 37.9272 32.8548L37.4269 31.4232C36.998 30.1348 37.6413 28.7748 38.9278 28.3454L39.0708 28.2738C40.3573 27.8443 41.7154 28.4886 42.1441 29.7769L42.43 30.5643L42.2157 28.8464Z" fill="#FBCA0C"/>
<path fill-rule="evenodd" clip-rule="evenodd" d="M32.1908 40.9546C32.1908 37.951 33.1176 34.4465 33.1176 34.4465V34.375C32.6897 33.0878 33.4027 31.6574 34.686 31.2282C35.3276 31.0137 36.0405 31.0852 36.6108 31.3713C35.4702 31.9434 34.8998 33.2307 35.3276 34.4465V34.518C35.3276 34.518 34.4008 38.094 34.4008 41.0261C34.4008 46.1754 34.4721 46.8906 36.5395 49.6083V52.4689C36.5395 53.5416 35.5415 54.4714 36.3256 54.6145C35.2563 54.543 34.4008 53.6132 34.4008 52.4689V49.6083C32.262 46.7476 32.1908 46.1038 32.1908 40.9546Z" fill="#78CFE2"/>
<path fill-rule="evenodd" clip-rule="evenodd" d="M49.2877 52.4671V49.6041C49.2877 49.6041 52.1466 47.242 52.1466 43.8778C52.1466 41.5158 51.9322 40.2273 50.0024 38.8674V18.4677C50.0024 17.2508 49.931 16.3203 49.0732 16.034C49.2877 15.9624 49.4306 15.9624 49.645 15.9624C51.0029 15.9624 52.1465 17.1077 52.1465 18.4677V38.8673C54.0763 40.2272 54.2908 41.5157 54.2908 43.8777C54.2908 47.2419 51.4319 49.604 51.4319 49.604V52.467C51.4319 53.6839 50.5027 54.6145 49.2877 54.6145H47.1434C48.3586 54.6145 49.2877 53.6839 49.2877 52.4671Z" fill="white"/>
<path fill-rule="evenodd" clip-rule="evenodd" d="M35.4874 31.8365C35.7734 31.8365 36.0594 31.9079 36.274 32.0509C36.703 32.2653 37.0605 32.6225 37.2036 33.0513L39.7778 40.4826C39.9209 40.9113 39.9209 41.4116 39.7063 41.8403C39.4918 42.2689 39.1343 42.6263 38.7053 42.7692C38.2762 42.9122 37.7756 42.9122 37.3466 42.6978C36.9176 42.4834 36.5601 42.1262 36.417 41.6974L33.8429 34.266C33.6998 33.8373 33.6998 33.3371 33.9143 32.9084C34.1288 32.4797 34.4863 32.1224 34.9154 31.9794C35.1298 31.8365 35.2729 31.8365 35.4874 31.8365ZM38.0617 44.2697C38.4192 44.2697 38.7769 44.1983 39.1343 44.1268C39.921 43.841 40.5645 43.2694 40.9935 42.4833C41.351 41.6973 41.4225 40.8398 41.1366 40.0538L38.5623 32.6224C38.2763 31.8364 37.7042 31.1933 36.9176 30.7646C36.1311 30.4073 35.2729 30.3358 34.4863 30.6216C33.6998 30.9074 33.0561 31.4791 32.6271 32.2651C32.1981 33.0511 32.1981 33.9087 32.4842 34.6947L35.0585 42.126C35.3444 42.912 35.9165 43.5551 36.7031 43.9839C37.0606 44.1268 37.5612 44.2697 38.0617 44.2697Z" fill="#293361"/>
<path d="M36.274 32.0509L36.211 32.1771L36.2031 32.1731L36.1958 32.1683L36.274 32.0509ZM37.2036 33.0513L37.0703 33.0974L37.0698 33.0959L37.2036 33.0513ZM39.7778 40.4826L39.9111 40.4365L39.9116 40.438L39.7778 40.4826ZM39.7063 41.8403L39.5802 41.7771L39.5802 41.7771L39.7063 41.8403ZM38.7053 42.7692L38.7499 42.903L38.7499 42.903L38.7053 42.7692ZM37.3466 42.6978L37.4097 42.5716L37.4097 42.5716L37.3466 42.6978ZM36.417 41.6974L36.5503 41.6512L36.5508 41.6528L36.417 41.6974ZM33.8429 34.266L33.7095 34.3122L33.709 34.3107L33.8429 34.266ZM33.9143 32.9084L33.7881 32.8453L33.7881 32.8453L33.9143 32.9084ZM34.9154 31.9794L34.9937 32.0968L34.978 32.1073L34.96 32.1133L34.9154 31.9794ZM39.1343 44.1268L39.1825 44.2594L39.1724 44.263L39.162 44.2651L39.1343 44.1268ZM40.9935 42.4833L41.1222 42.5419L41.1173 42.5509L40.9935 42.4833ZM41.1366 40.0538L41.004 40.102L41.0033 40.1L41.1366 40.0538ZM38.5623 32.6224L38.6948 32.5741L38.6956 32.5762L38.5623 32.6224ZM36.9176 30.7646L36.9761 30.6358L36.9851 30.6407L36.9176 30.7646ZM34.4863 30.6216L34.4381 30.489L34.4381 30.489L34.4863 30.6216ZM32.6271 32.2651L32.751 32.3327L32.751 32.3327L32.6271 32.2651ZM32.4842 34.6947L32.6167 34.6464L32.6175 34.6485L32.4842 34.6947ZM35.0585 42.126L34.9259 42.1743L34.9252 42.1722L35.0585 42.126ZM36.7031 43.9839L36.6507 44.1148L36.643 44.1117L36.6356 44.1077L36.7031 43.9839ZM35.4874 31.6954C35.7943 31.6954 36.1093 31.7717 36.3522 31.9335L36.1958 32.1683C36.0096 32.0442 35.7525 31.9776 35.4874 31.9776V31.6954ZM36.3371 31.9247C36.7911 32.1516 37.1798 32.5343 37.3374 33.0066L37.0698 33.0959C36.9412 32.7107 36.6149 32.3789 36.211 32.1771L36.3371 31.9247ZM37.3369 33.0051L39.9111 40.4365L39.6445 40.5288L37.0703 33.0974L37.3369 33.0051ZM39.9116 40.438C40.0644 40.8957 40.0667 41.4356 39.8325 41.9034L39.5802 41.7771C39.7752 41.3876 39.7775 40.927 39.644 40.5273L39.9116 40.438ZM39.8325 41.9034C39.6054 42.3571 39.2224 42.7456 38.7499 42.903L38.6607 42.6354C39.0462 42.5069 39.3782 42.1808 39.5802 41.7771L39.8325 41.9034ZM38.7499 42.903C38.2918 43.0556 37.7517 43.0579 37.2836 42.824L37.4097 42.5716C37.7995 42.7664 38.2605 42.7687 38.6607 42.6354L38.7499 42.903ZM37.2836 42.824C36.8295 42.5971 36.4408 42.2143 36.2832 41.742L36.5508 41.6528C36.6794 42.038 37.0056 42.3697 37.4097 42.5716L37.2836 42.824ZM36.2837 41.7436L33.7096 34.3122L33.9761 34.2198L36.5503 41.6512L36.2837 41.7436ZM33.709 34.3107C33.5563 33.8529 33.5541 33.3131 33.7881 32.8453L34.0404 32.9715C33.8456 33.361 33.8433 33.8216 33.9767 34.2214L33.709 34.3107ZM33.7881 32.8453C34.0152 32.3915 34.3982 32.003 34.8709 31.8456L34.96 32.1133C34.5744 32.2417 34.2424 32.5679 34.0404 32.9715L33.7881 32.8453ZM34.8372 31.8621C34.9577 31.7817 35.064 31.738 35.1737 31.716C35.2792 31.6949 35.383 31.6954 35.4874 31.6954V31.9776C35.3773 31.9776 35.3023 31.978 35.229 31.9927C35.1599 32.0065 35.0875 32.0342 34.9937 32.0968L34.8372 31.8621ZM38.0617 44.1287C38.4029 44.1287 38.7467 44.0605 39.1066 43.9885L39.162 44.2651C38.8071 44.3361 38.4356 44.4108 38.0617 44.4108V44.1287ZM39.0861 43.9942C39.8378 43.7211 40.4557 43.1743 40.8696 42.4157L41.1173 42.5509C40.6733 43.3645 40.0041 43.9609 39.1825 44.2594L39.0861 43.9942ZM40.8651 42.4249C41.2095 41.6675 41.2756 40.8484 41.004 40.102L41.2692 40.0056C41.5695 40.8311 41.4924 41.7271 41.1219 42.5417L40.8651 42.4249ZM41.0033 40.1L38.429 32.6686L38.6956 32.5762L41.2699 40.0076L41.0033 40.1ZM38.4297 32.6706C38.1564 31.9197 37.6092 31.3021 36.8501 30.8884L36.9851 30.6407C37.7992 31.0844 38.3961 31.7531 38.6948 32.5741L38.4297 32.6706ZM36.8592 30.893C36.1013 30.5488 35.2815 30.4828 34.5345 30.7542L34.4381 30.489C35.2642 30.1889 36.1608 30.2659 36.9759 30.6361L36.8592 30.893ZM34.5345 30.7542C33.783 31.0273 33.1649 31.5742 32.751 32.3327L32.5033 32.1976C32.9473 31.384 33.6166 30.7876 34.4381 30.489L34.5345 30.7542ZM32.751 32.3327C32.3443 33.0776 32.3422 33.8921 32.6167 34.6464L32.3516 34.7429C32.054 33.9252 32.0518 33.0247 32.5033 32.1976L32.751 32.3327ZM32.6175 34.6485L35.1918 42.0799L34.9252 42.1722L32.3509 34.7408L32.6175 34.6485ZM35.1911 42.0778C35.4642 42.8288 36.0115 43.4462 36.7706 43.86L36.6356 44.1077C35.8215 43.664 35.2246 42.9953 34.9259 42.1743L35.1911 42.0778ZM36.7555 43.8529C37.1034 43.992 37.5855 44.1287 38.0617 44.1287V44.4108C37.537 44.4108 37.0178 44.2616 36.6507 44.1148L36.7555 43.8529Z" fill="#293361"/>
<path fill-rule="evenodd" clip-rule="evenodd" d="M49.1706 45.4923C49.4556 45.4923 49.7407 45.349 49.812 45.0626C49.9546 44.7045 49.812 44.2749 49.4557 44.1317C47.959 43.4871 43.2551 38.2599 42.2573 35.8252C42.0434 35.1807 42.186 34.3931 42.6136 34.0351C43.1837 33.6054 44.1103 33.7486 45.2507 34.5363C46.4623 35.324 49.4557 37.6871 51.7364 39.4056C52.0215 39.6204 52.5204 39.6204 52.7342 39.2623C52.948 38.9759 52.948 38.4746 52.5916 38.2598C50.3109 36.5412 47.3175 34.1782 46.0347 33.3906C43.6827 31.8152 42.2573 32.5313 41.7584 32.9609C40.8318 33.7486 40.4755 35.1092 40.9744 36.3981C42.0434 38.9759 46.89 44.5613 48.8856 45.4206C49.028 45.4923 49.0992 45.4923 49.1706 45.4923Z" fill="#293361"/>
<path d="M49.1706 45.4923C49.4556 45.4923 49.7407 45.349 49.812 45.0626C49.9546 44.7045 49.812 44.2749 49.4557 44.1317C47.959 43.4871 43.2551 38.2599 42.2573 35.8252C42.0434 35.1807 42.186 34.3931 42.6136 34.0351C43.1837 33.6054 44.1103 33.7486 45.2507 34.5363C46.4623 35.324 49.4557 37.6871 51.7364 39.4056C52.0215 39.6204 52.5204 39.6204 52.7342 39.2623C52.948 38.9759 52.948 38.4746 52.5916 38.2598C50.3109 36.5412 47.3175 34.1782 46.0347 33.3906C43.6827 31.8152 42.2573 32.5313 41.7584 32.9609C40.8318 33.7486 40.4755 35.1092 40.9744 36.3981C42.0434 38.9759 46.89 44.5613 48.8856 45.4206C49.028 45.4923 49.0992 45.4923 49.1706 45.4923" stroke="#293361" stroke-width="0.282132"/>
<path fill-rule="evenodd" clip-rule="evenodd" d="M43.4981 40.2932C43.4263 40.3648 43.2825 40.4365 43.2107 40.4365L43.067 40.5081C42.1328 40.7947 41.1988 40.3648 40.8395 39.4336L37.9654 31.1951C37.8216 30.7653 37.8216 30.2638 38.0372 29.9056C38.2528 29.4758 38.612 29.1892 39.0431 29.046L39.1869 28.9744C40.1209 28.6878 41.055 29.1177 41.4143 30.0489L42.2047 32.3414C41.055 33.2727 40.4084 35.0636 40.9832 36.4248C41.3424 37.356 42.2766 38.7172 43.4981 40.2932ZM42.4921 42.0126C42.8514 42.0126 43.2107 41.941 43.4981 41.8693L43.6418 41.7977C44.1448 41.5828 44.6478 41.2962 45.007 40.7947C45.2226 40.5082 45.2226 40.15 45.007 39.8634C43.6418 38.2157 42.6359 36.7113 42.2766 35.8516C41.9173 34.992 42.4921 33.6308 43.3543 33.2727C43.7136 33.1294 43.8573 32.7712 43.7136 32.413L42.7076 29.5475C42.1328 27.8998 40.3365 27.0402 38.6838 27.6133L38.5401 27.6849C37.7496 27.9714 37.103 28.5445 36.7437 29.2609C36.3844 30.0489 36.3125 30.9086 36.6 31.6967L39.4741 39.9351C39.9773 41.1529 41.1988 42.0126 42.4921 42.0126Z" fill="#293361"/>
<path d="M43.2107 40.4365L43.1058 40.2261L43.1554 40.2014H43.2107V40.4365ZM43.067 40.5081L43.1718 40.7186L43.1544 40.7272L43.1359 40.7329L43.067 40.5081ZM40.8395 39.4336L40.62 39.5183L40.6175 39.511L40.8395 39.4336ZM37.9654 31.1951L37.7433 31.2726L37.7424 31.2697L37.9654 31.1951ZM38.0372 29.9056L38.2473 30.011L38.2433 30.0191L38.2386 30.0269L38.0372 29.9056ZM39.0431 29.046L39.1479 29.2565L39.133 29.2639L39.1172 29.2691L39.0431 29.046ZM39.1869 28.9744L39.0821 28.7639L39.0994 28.7553L39.1179 28.7496L39.1869 28.9744ZM41.4143 30.0489L41.6338 29.9643L41.6365 29.9723L41.4143 30.0489ZM42.2047 32.3414L42.427 32.2647L42.4807 32.4204L42.3527 32.5241L42.2047 32.3414ZM40.9832 36.4248L41.1999 36.3332L41.2026 36.3401L40.9832 36.4248ZM43.4981 41.8693L43.6029 42.0797L43.5799 42.0912L43.555 42.0974L43.4981 41.8693ZM43.6418 41.7977L43.5368 41.5869L43.5494 41.5815L43.6418 41.7977ZM45.007 40.7947L44.8158 40.6578L44.8191 40.6534L45.007 40.7947ZM45.007 39.8634L45.1883 39.7132L45.1949 39.7221L45.007 39.8634ZM42.2766 35.8516L42.0596 35.9423L42.0596 35.9423L42.2766 35.8516ZM43.3543 33.2727L43.2641 33.0555L43.2672 33.0543L43.3543 33.2727ZM43.7136 32.413L43.4952 32.5007L43.4917 32.4909L43.7136 32.413ZM42.7076 29.5475L42.4858 29.6254L42.4856 29.625L42.7076 29.5475ZM38.6838 27.6133L38.579 27.4028L38.5925 27.3961L38.6068 27.3911L38.6838 27.6133ZM38.5401 27.6849L38.6449 27.8953L38.6329 27.9013L38.6202 27.9059L38.5401 27.6849ZM36.7437 29.2609L36.5297 29.1633L36.5336 29.1555L36.7437 29.2609ZM36.6 31.6967L36.8209 31.6161L36.822 31.6192L36.6 31.6967ZM39.4741 39.9351L39.2565 40.025L39.2521 40.0126L39.4741 39.9351ZM43.6641 40.4597C43.6049 40.5187 43.5278 40.568 43.4593 40.6021C43.3983 40.6326 43.3035 40.6716 43.2107 40.6716V40.2014C43.1945 40.2014 43.1909 40.2045 43.2047 40.2001C43.2157 40.1966 43.2312 40.1904 43.2495 40.1813C43.2888 40.1617 43.3195 40.1393 43.3321 40.1267L43.6641 40.4597ZM43.3155 40.647L43.1718 40.7186L42.9621 40.2977L43.1058 40.2261L43.3155 40.647ZM43.1359 40.7329C42.0872 41.0546 41.0251 40.5679 40.6201 39.5182L41.0588 39.3489C41.3724 40.1617 42.1784 40.5348 42.998 40.2834L43.1359 40.7329ZM40.6175 39.511L37.7434 31.2726L38.1873 31.1177L41.0615 39.3561L40.6175 39.511ZM37.7424 31.2697C37.585 30.799 37.5733 30.2205 37.8357 29.7844L38.2386 30.0269C38.07 30.3071 38.0582 30.7315 38.1883 31.1206L37.7424 31.2697ZM37.827 29.8002C38.0728 29.3102 38.4836 28.9841 38.9689 28.8229L39.1172 29.2691C38.7404 29.3943 38.4327 29.6413 38.2473 30.011L37.827 29.8002ZM38.9383 28.8355L39.0821 28.7639L39.2917 29.1848L39.1479 29.2565L38.9383 28.8355ZM39.1179 28.7496C40.1665 28.4279 41.2287 28.9146 41.6336 29.9643L41.1949 30.1336C40.8814 29.3208 40.0753 28.9478 39.2558 29.1992L39.1179 28.7496ZM41.6365 29.9723L42.427 32.2647L41.9825 32.418L41.192 30.1256L41.6365 29.9723ZM42.3527 32.5241C41.8164 32.9585 41.3921 33.5991 41.1713 34.2931C40.9506 34.9874 40.9391 35.7159 41.1998 36.3333L40.7666 36.5162C40.4525 35.7725 40.477 34.925 40.7232 34.1506C40.9696 33.3761 41.4434 32.6555 42.0568 32.1587L42.3527 32.5241ZM41.2026 36.3401C41.5475 37.2344 42.4598 38.5698 43.6839 40.1492L43.3123 40.4372C42.0934 38.8646 41.1373 37.4776 40.7639 36.5094L41.2026 36.3401ZM42.4921 41.7775C42.823 41.7775 43.1606 41.7112 43.4412 41.6412L43.555 42.0974C43.2608 42.1708 42.8798 42.2477 42.4921 42.2477V41.7775ZM43.3932 41.6589L43.537 41.5872L43.7467 42.0081L43.6029 42.0797L43.3932 41.6589ZM43.5494 41.5815C44.0373 41.373 44.4936 41.1077 44.8159 40.6578L45.1982 40.9317C44.8019 41.4847 44.2523 41.7925 43.7342 42.0139L43.5494 41.5815ZM44.8191 40.6534C44.9717 40.4506 44.9717 40.2076 44.8191 40.0048L45.1949 39.7221C45.4734 40.0923 45.4734 40.5658 45.1949 40.9361L44.8191 40.6534ZM44.826 40.0134C43.4582 38.3625 42.4331 36.8358 42.0596 35.9423L42.4935 35.761C42.8386 36.5867 43.8255 38.0689 45.1881 39.7134L44.826 40.0134ZM42.0596 35.9423C41.8478 35.4355 41.919 34.8116 42.1406 34.2832C42.3623 33.7545 42.7579 33.2659 43.2642 33.0556L43.4445 33.4898C43.0886 33.6377 42.7656 34.0087 42.5742 34.465C42.3827 34.9216 42.3461 35.4082 42.4935 35.761L42.0596 35.9423ZM43.2672 33.0543C43.3923 33.0044 43.4684 32.9229 43.5053 32.8337C43.5424 32.7437 43.5467 32.6285 43.4954 32.5006L43.9318 32.3255C44.0242 32.5557 44.0285 32.7987 43.9399 33.0132C43.851 33.2284 43.6756 33.3977 43.4415 33.4911L43.2672 33.0543ZM43.4917 32.4909L42.4858 29.6254L42.9295 29.4697L43.9354 32.3352L43.4917 32.4909ZM42.4856 29.625C41.954 28.101 40.2923 27.3043 38.7608 27.8354L38.6068 27.3911C40.3807 26.776 42.3116 27.6986 42.9296 29.4701L42.4856 29.625ZM38.7887 27.8237L38.6449 27.8953L38.4352 27.4744L38.579 27.4028L38.7887 27.8237ZM38.6202 27.9059C37.8846 28.1726 37.2854 28.7053 36.9539 29.3663L36.5336 29.1555C36.9206 28.3838 37.6147 27.7703 38.4599 27.4639L38.6202 27.9059ZM36.9577 29.3585C36.6201 30.0987 36.5575 30.8942 36.8209 31.6161L36.3791 31.7772C36.0675 30.9231 36.1487 29.9992 36.5298 29.1634L36.9577 29.3585ZM36.822 31.6192L39.6961 39.8577L39.2521 40.0126L36.378 31.7741L36.822 31.6192ZM39.6914 39.8453C40.1606 40.9809 41.3001 41.7775 42.4921 41.7775V42.2477C41.0975 42.2477 39.7939 41.3249 39.2568 40.0249L39.6914 39.8453Z" fill="#293361"/>
<path fill-rule="evenodd" clip-rule="evenodd" d="M36.3738 55.2728H49.3208C50.8946 55.2728 52.1821 53.9851 52.1821 52.4112V49.8358C52.9688 49.1204 55.0432 46.8311 55.0432 43.8264V43.7548C55.0432 41.537 54.8286 39.9632 52.8973 38.4608V25.9412C52.8973 25.512 52.6111 25.2258 52.182 25.2258C51.7527 25.2258 51.4667 25.512 51.4667 25.9412V37.3877C51.1805 37.3162 50.8945 37.3877 50.6798 37.6024C50.5367 37.7455 50.5367 37.8885 50.5367 38.0316C50.5367 38.2463 50.6082 38.4609 50.8229 38.6039L51.7527 39.3909L51.8242 39.4624C53.4695 40.6071 53.6125 41.6086 53.6125 43.8263V43.8978C53.541 46.831 51.0374 48.9772 51.0374 48.9772C50.8229 49.1203 50.7514 49.3349 50.7514 49.5495V52.4111C50.7514 53.198 50.1076 53.8419 49.3207 53.8419H36.3736C35.5868 53.8419 35.0146 53.198 35.0146 52.4111V49.621C35.0146 49.4779 35.0146 49.2634 34.8715 49.1202C32.9401 46.5448 32.8686 45.9724 32.8686 40.9646C32.8686 38.103 33.7985 34.669 33.7985 34.669C33.87 34.5259 33.7985 34.3829 33.7985 34.2398C33.441 33.2382 33.9416 32.2366 34.8715 31.9505C35.3007 31.8074 35.8015 31.8074 36.2305 32.022C36.6597 32.2366 37.0174 32.5943 37.1605 33.0236C37.3036 33.3812 37.6611 33.5959 38.0903 33.4528C38.448 33.3097 38.6626 32.952 38.5196 32.5228L38.0188 31.0919C37.7327 30.1619 38.1619 29.2319 39.0918 28.8742L39.2349 28.8027C39.6642 28.6595 40.1648 28.6595 40.5224 28.8742C40.9517 29.0888 41.2377 29.4465 41.3807 29.8757L41.6669 30.6627C41.81 31.0203 42.1677 31.235 42.5252 31.1635C42.8828 31.0919 43.0974 30.7342 43.0974 30.3765L42.8828 28.7311V28.4449C42.8828 27.4433 43.7411 26.6564 44.7426 26.6564C45.2433 26.6564 45.6725 26.871 46.0301 27.1572C46.3163 27.4433 46.5308 27.8726 46.5308 28.3019V34.4544C46.5308 34.8837 46.8169 35.1698 47.2461 35.1698C47.6754 35.1698 47.9615 34.8837 47.9615 34.4544V28.3735V28.2304V18.358C47.89 17.4279 48.6768 16.641 49.6782 16.641C50.6796 16.641 51.4665 17.4279 51.4665 18.4295V20.218C51.4665 20.6472 51.7526 20.9334 52.1818 20.9334C52.5394 20.9334 52.8971 20.6472 52.8971 20.218V18.4295C52.8973 16.641 51.4669 15.2101 49.6786 15.2101C47.8903 15.2101 46.4597 16.641 46.4597 18.4295V25.7981C45.959 25.4404 45.3152 25.2258 44.6715 25.2258C43.0977 25.2258 41.7386 26.3705 41.4525 27.8728C41.381 27.8013 41.238 27.7297 41.0949 27.6582C40.308 27.3005 39.4496 27.2289 38.6629 27.5151L38.5198 27.5866C37.2322 28.0159 36.3738 29.2321 36.3738 30.5198C35.7299 30.3052 34.9432 30.3052 34.2994 30.5198C32.6542 31.0921 31.7958 32.8091 32.2251 34.4546C32.1536 35.313 31.4382 38.3177 31.4382 40.9647C31.4382 45.9726 31.5097 46.9741 33.5842 49.7642V52.4112C33.5842 54.0566 34.8002 55.2728 36.3738 55.2728Z" fill="#293361"/>
<path d="M36.3738 55.2728H49.3208C50.8946 55.2728 52.1821 53.9851 52.1821 52.4112V49.8358C52.9688 49.1204 55.0432 46.8311 55.0432 43.8264V43.7548C55.0432 41.537 54.8286 39.9632 52.8973 38.4608V25.9412C52.8973 25.512 52.6111 25.2258 52.182 25.2258C51.7527 25.2258 51.4667 25.512 51.4667 25.9412V37.3877C51.1805 37.3162 50.8945 37.3877 50.6798 37.6024C50.5367 37.7455 50.5367 37.8885 50.5367 38.0316C50.5367 38.2463 50.6082 38.4609 50.8229 38.6039L51.7527 39.3909L51.8242 39.4624C53.4695 40.6071 53.6125 41.6086 53.6125 43.8263V43.8978C53.541 46.831 51.0374 48.9772 51.0374 48.9772C50.8229 49.1203 50.7514 49.3349 50.7514 49.5495V52.4111C50.7514 53.198 50.1076 53.8419 49.3207 53.8419H36.3736C35.5868 53.8419 35.0146 53.198 35.0146 52.4111V49.621C35.0146 49.4779 35.0146 49.2634 34.8715 49.1202C32.9401 46.5448 32.8686 45.9724 32.8686 40.9646C32.8686 38.103 33.7985 34.669 33.7985 34.669C33.87 34.5259 33.7985 34.3829 33.7985 34.2398C33.441 33.2382 33.9416 32.2366 34.8715 31.9505C35.3007 31.8074 35.8015 31.8074 36.2305 32.022C36.6597 32.2366 37.0174 32.5943 37.1605 33.0236C37.3036 33.3812 37.6611 33.5959 38.0903 33.4528C38.448 33.3097 38.6626 32.952 38.5196 32.5228L38.0188 31.0919C37.7327 30.1619 38.1619 29.2319 39.0918 28.8742L39.2349 28.8027C39.6642 28.6595 40.1648 28.6595 40.5224 28.8742C40.9517 29.0888 41.2377 29.4465 41.3807 29.8757L41.6669 30.6627C41.81 31.0203 42.1677 31.235 42.5252 31.1635C42.8828 31.0919 43.0974 30.7342 43.0974 30.3765L42.8828 28.7311V28.4449C42.8828 27.4433 43.7411 26.6564 44.7426 26.6564C45.2433 26.6564 45.6725 26.871 46.0301 27.1572C46.3163 27.4433 46.5308 27.8726 46.5308 28.3019V34.4544C46.5308 34.8837 46.8169 35.1698 47.2461 35.1698C47.6754 35.1698 47.9615 34.8837 47.9615 34.4544V28.3735V28.2304V18.358C47.89 17.4279 48.6768 16.641 49.6782 16.641C50.6796 16.641 51.4665 17.4279 51.4665 18.4295V20.218C51.4665 20.6472 51.7526 20.9334 52.1818 20.9334C52.5394 20.9334 52.8971 20.6472 52.8971 20.218V18.4295C52.8973 16.641 51.4669 15.2101 49.6786 15.2101C47.8903 15.2101 46.4597 16.641 46.4597 18.4295V25.7981C45.959 25.4404 45.3152 25.2258 44.6715 25.2258C43.0977 25.2258 41.7386 26.3705 41.4525 27.8728C41.381 27.8013 41.238 27.7297 41.0949 27.6582C40.308 27.3005 39.4496 27.2289 38.6629 27.5151L38.5198 27.5866C37.2322 28.0159 36.3738 29.2321 36.3738 30.5198C35.7299 30.3052 34.9432 30.3052 34.2994 30.5198C32.6542 31.0921 31.7958 32.8091 32.2251 34.4546C32.1536 35.313 31.4382 38.3177 31.4382 40.9647C31.4382 45.9726 31.5097 46.9741 33.5842 49.7642V52.4112C33.5842 54.0566 34.8002 55.2728 36.3738 55.2728" stroke="#293361" stroke-width="0.282132"/>
<path fill-rule="evenodd" clip-rule="evenodd" d="M51.4695 23.0628C51.4695 22.6396 51.7516 22.3574 52.1748 22.3574C52.598 22.3574 52.8801 22.6396 52.8801 23.0628C52.8801 23.486 52.598 23.7681 52.1748 23.7681C51.7516 23.7681 51.4695 23.486 51.4695 23.0628Z" fill="black"/>
<path d="M51.4695 23.0628C51.4695 22.6396 51.7516 22.3574 52.1748 22.3574C52.598 22.3574 52.8801 22.6396 52.8801 23.0628C52.8801 23.486 52.598 23.7681 52.1748 23.7681C51.7516 23.7681 51.4695 23.486 51.4695 23.0628" stroke="#293361" stroke-width="0.282132"/>
<path d="M78.009 31.6336H72.0118V45.8696H65.2286V31.6336H59.2024V26.6554H78.009V31.6336ZM95.8583 31.6336H89.8612V45.8696H83.078V31.6336H77.0517V26.6554H95.8583V31.6336Z" fill="#1C2760"/>
<path d="M106.983 45.8696H99.5299L94.0859 26.6554H101.393L103.635 40.542L106.342 26.6554H112.165L115.018 40.4547L117.201 26.6554H124.246L118.773 45.8696H111.582L110.069 38.6497L109.312 33.7297H109.224L108.467 38.6497L106.983 45.8696ZM148.091 45.8696H142.181V39.2028L142.268 32.7399H142.181L138.455 45.8696H133.04L129.372 32.7399H129.255L129.343 39.2028V45.8696H123.404V26.6554H132.894L135.107 35.1853L135.951 38.7662H136.009L136.854 35.1853L139.066 26.6554H148.091V45.8696Z" fill="white"/>
</svg>
