<svg width="600" height="481" viewBox="0 0 600 481" fill="none" xmlns="http://www.w3.org/2000/svg">
<path fill-rule="evenodd" clip-rule="evenodd" d="M350.79 5.26687L358.822 21.7212L369.033 6.52638L350.79 5.26687ZM358.481 29.1737C358.424 29.1737 358.367 29.1718 358.31 29.168C357.424 29.1066 356.639 28.5771 356.249 27.7787L344.437 3.5811C344.047 2.78242 344.112 1.83622 344.607 1.09863C345.103 0.361027 345.956 -0.0556276 346.839 0.00599802L373.667 1.85831C374.552 1.91939 375.338 2.44893 375.728 3.24761C376.117 4.04602 376.052 4.99249 375.557 5.72982L360.541 28.0751C360.078 28.7647 359.303 29.1737 358.481 29.1737Z" fill="#FBCA0C"/>
<path fill-rule="evenodd" clip-rule="evenodd" d="M563.015 82.2972L570.017 98.2898C570.519 99.4379 571.858 99.9613 573.006 99.4585L588.999 92.4564C590.147 91.9539 590.67 90.6154 590.167 89.4671L583.166 73.4748C582.663 72.3265 581.324 71.8033 580.176 72.3059L564.184 79.308C563.035 79.8108 562.512 81.1489 563.015 82.2972Z" fill="#78CFE2"/>
<path fill-rule="evenodd" clip-rule="evenodd" d="M16.3932 171.611L22.7838 188.61C23.4561 190.398 21.9345 192.241 20.0451 191.927L2.08205 188.945C0.19239 188.631 -0.64773 186.396 0.56967 184.922L12.1418 170.905C13.3589 169.43 15.7209 169.823 16.3932 171.611Z" fill="#FBCA0C"/>
<path fill-rule="evenodd" clip-rule="evenodd" d="M478.58 435.475C478.58 443.713 485.258 450.39 493.495 450.39C501.732 450.39 508.409 443.713 508.409 435.475C508.409 427.238 501.732 420.561 493.495 420.561C485.258 420.561 478.58 427.238 478.58 435.475Z" fill="#78CFE2"/>
<path fill-rule="evenodd" clip-rule="evenodd" d="M133.74 27.5741C128.701 27.5741 124.601 31.6735 124.601 36.7127C124.601 41.7518 128.701 45.8513 133.74 45.8513C138.779 45.8513 142.878 41.7518 142.878 36.7127C142.878 31.6735 138.779 27.5741 133.74 27.5741ZM133.74 50.808C125.968 50.808 119.645 44.485 119.645 36.7128C119.645 28.9406 125.968 22.6177 133.74 22.6177C141.512 22.6177 147.835 28.9406 147.835 36.7128C147.835 44.485 141.512 50.808 133.74 50.808Z" fill="#78CFE2"/>
<path fill-rule="evenodd" clip-rule="evenodd" d="M25.4038 372.047C24.0462 372.047 22.9453 370.929 22.9453 369.549V348.321C22.9453 346.942 24.0462 345.823 25.4038 345.823C26.7614 345.823 27.8622 346.942 27.8622 348.321V369.549C27.8622 370.929 26.7614 372.047 25.4038 372.047Z" fill="#78CFE2"/>
<path fill-rule="evenodd" clip-rule="evenodd" d="M36.1821 361.558H14.9535C13.5744 361.558 12.4561 360.457 12.4561 359.099C12.4561 357.741 13.5744 356.641 14.9535 356.641H36.1821C37.5613 356.641 38.6796 357.741 38.6796 359.099C38.6796 360.457 37.5613 361.558 36.1821 361.558Z" fill="#78CFE2"/>
<path fill-rule="evenodd" clip-rule="evenodd" d="M17.9025 369.097C17.2634 369.097 16.6249 368.853 16.1375 368.365C15.1625 367.391 15.1625 365.81 16.1375 364.835L31.1407 349.832C32.1154 348.857 33.6957 348.858 34.6707 349.832C35.6454 350.807 35.6454 352.388 34.6707 353.362L19.6675 368.365C19.1802 368.853 18.5412 369.097 17.9025 369.097Z" fill="#78CFE2"/>
<path fill-rule="evenodd" clip-rule="evenodd" d="M32.9055 369.097C32.2668 369.097 31.6277 368.853 31.1405 368.365L16.1373 353.362C15.1626 352.388 15.1626 350.807 16.1373 349.832C17.1119 348.858 18.6928 348.858 19.6672 349.832L34.6705 364.835C35.6455 365.81 35.6455 367.391 34.6705 368.365C34.1833 368.853 33.5443 369.097 32.9055 369.097Z" fill="#78CFE2"/>
<path fill-rule="evenodd" clip-rule="evenodd" d="M268.627 480.875C267.27 480.875 266.169 479.757 266.169 478.377V457.148C266.169 455.769 267.27 454.651 268.627 454.651C269.985 454.651 271.086 455.769 271.086 457.148V478.377C271.086 479.757 269.985 480.875 268.627 480.875Z" fill="#FBCA0C"/>
<path fill-rule="evenodd" clip-rule="evenodd" d="M279.407 470.385H258.178C256.799 470.385 255.681 469.284 255.681 467.927C255.681 466.569 256.799 465.468 258.178 465.468H279.407C280.786 465.468 281.904 466.569 281.904 467.927C281.904 469.284 280.786 470.385 279.407 470.385Z" fill="#FBCA0C"/>
</svg>
