<svg width="92" height="481" viewBox="0 0 92 481" fill="none" xmlns="http://www.w3.org/2000/svg">
<path fill-rule="evenodd" clip-rule="evenodd" d="M16.3932 171.611L22.7838 188.61C23.4561 190.398 21.9345 192.241 20.0451 191.927L2.08205 188.945C0.19239 188.631 -0.64773 186.396 0.56967 184.922L12.1418 170.905C13.3589 169.43 15.7209 169.823 16.3932 171.611Z" fill="#FBCA0C"/>
<path fill-rule="evenodd" clip-rule="evenodd" d="M25.4038 372.047C24.0462 372.047 22.9453 370.929 22.9453 369.549V348.321C22.9453 346.941 24.0462 345.823 25.4038 345.823C26.7614 345.823 27.8622 346.941 27.8622 348.321V369.549C27.8622 370.929 26.7614 372.047 25.4038 372.047Z" fill="#78CFE2"/>
<path fill-rule="evenodd" clip-rule="evenodd" d="M36.1821 361.558H14.9535C13.5744 361.558 12.4561 360.457 12.4561 359.099C12.4561 357.741 13.5744 356.641 14.9535 356.641H36.1821C37.5613 356.641 38.6796 357.741 38.6796 359.099C38.6796 360.457 37.5613 361.558 36.1821 361.558Z" fill="#78CFE2"/>
<path fill-rule="evenodd" clip-rule="evenodd" d="M17.9025 369.097C17.2634 369.097 16.6249 368.853 16.1375 368.365C15.1625 367.391 15.1625 365.81 16.1375 364.835L31.1407 349.832C32.1154 348.857 33.6957 348.858 34.6707 349.832C35.6454 350.807 35.6454 352.388 34.6707 353.362L19.6675 368.365C19.1802 368.853 18.5412 369.097 17.9025 369.097Z" fill="#78CFE2"/>
<path fill-rule="evenodd" clip-rule="evenodd" d="M32.9055 369.097C32.2668 369.097 31.6277 368.853 31.1405 368.365L16.1373 353.362C15.1626 352.388 15.1626 350.807 16.1373 349.832C17.1119 348.858 18.6928 348.858 19.6672 349.832L34.6705 364.835C35.6455 365.81 35.6455 367.391 34.6705 368.365C34.1833 368.853 33.5443 369.097 32.9055 369.097Z" fill="#78CFE2"/>
</svg>
