<svg width="93" height="481" viewBox="0 0 93 481" fill="none" xmlns="http://www.w3.org/2000/svg">
<path fill-rule="evenodd" clip-rule="evenodd" d="M28.0149 82.2972L35.0166 98.2898C35.5194 99.4379 36.8576 99.9613 38.0061 99.4585L53.9987 92.4564C55.1467 91.9539 55.6701 90.6154 55.1673 89.4671L48.1656 73.4748C47.6628 72.3265 46.3243 71.8033 45.1761 72.3059L29.1838 79.308C28.0355 79.8108 27.5121 81.1489 28.0149 82.2972Z" fill="#78CFE2"/>
<path fill-rule="evenodd" clip-rule="evenodd" d="M78.3255 299.276C77.469 299.276 76.6356 298.83 76.1769 298.031L67.4909 282.919C66.8068 281.729 67.2131 280.207 68.3984 279.52L80.3008 272.624L74.1272 261.883C73.4432 260.692 73.8497 259.171 75.035 258.484L86.536 251.82L79.7832 240.071C79.0994 238.882 79.5057 237.36 80.691 236.673C81.8767 235.986 83.3917 236.395 84.0757 237.585L92.0671 251.489C92.3957 252.06 92.4845 252.739 92.3142 253.376C92.144 254.014 91.7285 254.557 91.1593 254.887L79.658 261.55L85.8319 272.292C86.5157 273.482 86.1094 275.004 84.9241 275.69L73.0217 282.586L80.4694 295.544C81.1532 296.735 80.747 298.256 79.5616 298.943C79.1714 299.169 78.7456 299.276 78.3255 299.276Z" fill="#FBCA0C"/>
</svg>
