<svg width="82" height="69" viewBox="0 0 82 69" fill="none" xmlns="http://www.w3.org/2000/svg">
<g clip-path="url(#clip0)">
<path d="M22.0645 29.5729H18.6205V28.6769H26.5445V29.5729H23.1005V38.4769H22.0645V29.5729ZM30.2402 29.5729H26.7962V28.6769H34.7202V29.5729H31.2762V38.4769H30.2402V29.5729ZM49.7609 28.6769L46.4569 38.4769H45.3649L42.4949 30.1189L39.6109 38.4769H38.5329L35.2289 28.6769H36.2929L39.1209 37.1049L42.0469 28.6769H43.0129L45.8969 37.1469L48.7669 28.6769H49.7609ZM61.8385 28.6769V38.4769H60.8445V30.6369L56.9945 37.2309H56.5045L52.6545 30.6789V38.4769H51.6605V28.6769H52.5145L56.7705 35.9429L60.9845 28.6769H61.8385Z" fill="#0084F4"/>
</g>
<path d="M23.588 13.6356C23.588 13.6356 21.0013 7.37379 16.1785 9.39948C16.1785 9.39948 16.1128 14.2199 23.588 13.6356Z" fill="#0084F4"/>
<path d="M19.7856 1.65117C19.7856 1.65117 21.2792 8.19112 16.1782 9.30882C16.1782 9.30882 13.3307 5.41315 19.7856 1.65117Z" fill="#0084F4"/>
<path d="M18.8699 18.298C18.8699 18.298 14.7377 12.9535 10.6507 16.1577C10.6507 16.1577 11.7696 20.7902 18.8699 18.298Z" fill="#0084F4"/>
<path d="M12.0652 7.6932C12.0652 7.6932 15.1973 13.679 10.5591 16.0674C10.5586 15.9765 6.80403 12.9949 12.0652 7.6932Z" fill="#0084F4"/>
<path d="M15.4339 23.9539C15.4339 23.9539 10.1223 19.7978 6.95257 23.9977C6.95257 23.9977 9.25509 28.2603 15.4339 23.9539Z" fill="#0084F4"/>
<path d="M6.17793 15.4535C6.17793 15.4535 10.7638 20.4314 6.86085 23.9073C6.86085 23.9073 2.47371 22.0203 6.17793 15.4535Z" fill="#0084F4"/>
<path d="M13.7349 30.4192C13.7349 30.4192 7.51956 27.8139 5.53872 32.6442C5.44753 32.6447 8.84008 36.0832 13.7349 30.4192Z" fill="#0084F4"/>
<path d="M2.48657 24.5665C2.48657 24.5665 8.25079 28.1743 5.35577 32.5543C5.35577 32.5543 0.60954 31.7604 2.48657 24.5665Z" fill="#0084F4"/>
<path d="M13.5872 37.0583C13.5872 37.0583 6.8339 36.1838 6.22294 41.3708C6.22246 41.2798 10.4305 43.7136 13.5872 37.0583Z" fill="#0084F4"/>
<path d="M1.26083 34.3031C1.26083 34.3031 7.7461 36.2703 6.13106 41.2804C6.13106 41.2804 1.39144 41.7596 1.26083 34.3031Z" fill="#0084F4"/>
<path d="M15.2621 43.4153C15.2621 43.4153 8.51803 44.2686 9.275 49.4483C9.275 49.4483 13.9331 50.7884 15.2621 43.4153Z" fill="#0084F4"/>
<path d="M2.67981 44.0261C2.67981 44.0261 9.42968 44.2641 9.18399 49.54C9.18351 49.4491 4.72409 51.2 2.67981 44.0261Z" fill="#0084F4"/>
<path d="M18.5758 49.2181C18.5758 49.2181 12.297 51.7968 14.3287 56.6062C14.3287 56.6062 19.1624 56.6721 18.5758 49.2181Z" fill="#0084F4"/>
<path d="M6.46627 53.0093C6.46627 53.0093 13.1159 51.5198 14.146 56.6074C14.2372 56.6069 10.3307 59.4464 6.46627 53.0093Z" fill="#0084F4"/>
<path d="M23.2518 53.9224C23.2518 53.9224 17.8933 58.0424 21.1066 62.1181C21.0154 62.1185 25.7515 61.0028 23.2518 53.9224Z" fill="#0084F4"/>
<path d="M12.526 60.7075C12.526 60.7075 18.5286 57.5843 20.9243 62.2102C20.9243 62.2102 17.9345 65.9544 12.526 60.7075Z" fill="#0084F4"/>
<path d="M28.9244 57.3484C28.9244 57.3484 24.7576 62.6444 28.9691 65.8056C28.9691 65.8056 33.1518 63.5105 28.9244 57.3484Z" fill="#0084F4"/>
<path d="M20.4002 66.5775C20.4002 66.5775 25.392 62.0043 28.8776 65.8061C28.8781 65.897 26.9861 70.2723 20.4002 66.5775Z" fill="#0084F4"/>
<path d="M29.6505 4.50991C29.6505 4.50991 23.165 2.54275 21.7322 7.55205C21.7322 7.55205 25.3964 10.6251 29.6505 4.50991Z" fill="#0084F4"/>
<path d="M58.6088 13.4528C58.6088 13.4528 61.1291 7.16463 65.973 9.14038C65.8819 9.14086 65.9985 13.9603 58.6088 13.4528Z" fill="#0084F4"/>
<path d="M62.2848 1.42968C62.2848 1.42968 60.8603 7.98472 65.9728 9.0496C65.9728 9.0496 68.6879 5.12515 62.2848 1.42968Z" fill="#0084F4"/>
<path d="M63.3753 18.0657C63.3753 18.0657 67.4508 12.6788 71.5715 15.8407C71.5715 15.8407 70.4105 20.4849 63.3753 18.0657Z" fill="#0084F4"/>
<path d="M70.068 7.39106C70.068 7.39106 66.9993 13.4089 71.6625 15.7493C71.662 15.6583 75.2937 12.6386 70.068 7.39106Z" fill="#0084F4"/>
<path d="M66.7792 23.686C66.7792 23.686 72.0465 19.4752 75.2605 23.6422C75.3517 23.6417 73.0032 27.9283 66.7792 23.686Z" fill="#0084F4"/>
<path d="M76.0363 15.0897C76.0363 15.0897 71.5033 20.1148 75.4427 23.5502C75.3515 23.5506 79.8097 21.6179 76.0363 15.0897Z" fill="#0084F4"/>
<path d="M68.6369 30.1328C68.6369 30.1328 74.8243 27.4634 76.8561 32.273C76.8561 32.273 73.5913 35.7458 68.6369 30.1328Z" fill="#0084F4"/>
<path d="M79.823 24.1638C79.823 24.1638 74.0972 27.831 77.0384 32.1809C76.9472 32.1814 81.776 31.338 79.823 24.1638Z" fill="#0084F4"/>
<path d="M68.7628 36.7705C68.7628 36.7705 75.5065 35.8263 76.1723 41.0067C76.1718 40.9157 72.0809 43.3923 68.7628 36.7705Z" fill="#0084F4"/>
<path d="M81.0595 33.8877C81.0595 33.8877 74.5954 35.9218 76.2633 40.9149C76.2633 40.9149 81.0989 41.3447 81.0595 33.8877Z" fill="#0084F4"/>
<path d="M67.1545 43.1444C67.1545 43.1444 73.9072 43.9279 73.2049 49.1152C73.2049 49.1152 68.6524 50.5029 67.1545 43.1444Z" fill="#0084F4"/>
<path d="M79.8337 43.6244C79.8337 43.6244 73.0867 43.932 73.3882 49.2052C73.3877 49.1142 77.8654 50.819 79.8337 43.6244Z" fill="#0084F4"/>
<path d="M63.993 48.9809C63.993 48.9809 70.2987 51.4946 68.3179 56.3247C68.3179 56.3247 63.4852 56.4407 63.993 48.9809Z" fill="#0084F4"/>
<path d="M76.0506 52.6469C76.0506 52.6469 69.3856 51.2263 68.4093 56.3242C68.4093 56.3242 72.3457 59.1232 76.0506 52.6469Z" fill="#0084F4"/>
<path d="M59.3666 53.7338C59.3666 53.7338 64.7684 57.7981 61.5983 61.9069C61.5983 61.9069 56.9419 60.8397 59.3666 53.7338Z" fill="#0084F4"/>
<path d="M70.072 60.4079C70.072 60.4079 64.0367 57.3469 61.6901 61.9973C61.6901 61.9973 64.8105 65.71 70.072 60.4079Z" fill="#0084F4"/>
<path d="M53.639 57.2194C53.639 57.2194 57.8615 62.472 53.6836 65.6765C53.6836 65.6765 49.477 63.4248 53.639 57.2194Z" fill="#0084F4"/>
<path d="M62.26 66.3597C62.26 66.3597 57.2201 61.8383 53.7749 65.6759C53.7753 65.7669 55.8048 70.1218 62.26 66.3597Z" fill="#0084F4"/>
<path d="M52.3591 4.39132C52.3591 4.39132 58.8236 2.35708 60.3091 7.35126C60.4003 7.35079 56.6775 10.4621 52.3591 4.39132Z" fill="#0084F4"/>
<defs>
<clipPath id="clip0">
<rect x="20.4" y="24.4769" width="41.2" height="41.2543" fill="white"/>
</clipPath>
</defs>
</svg>
